<?xml version="1.0" encoding="UTF-8" standalone="no"?>
<!-- Created with Inkscape (http://www.inkscape.org/) -->

<svg
   version="1.1"
   id="svg2"
   width="666.66669"
   height="666.66669"
   viewBox="0 0 666.66669 666.66669"
   sodipodi:docname="nft Icon1.svg"
   inkscape:version="1.3.2 (091e20e, 2023-11-25, custom)"
   xmlns:inkscape="http://www.inkscape.org/namespaces/inkscape"
   xmlns:sodipodi="http://sodipodi.sourceforge.net/DTD/sodipodi-0.dtd"
   xmlns="http://www.w3.org/2000/svg"
   xmlns:svg="http://www.w3.org/2000/svg">
  <defs
     id="defs6" />
  <sodipodi:namedview
     id="namedview4"
     pagecolor="#ffffff"
     bordercolor="#000000"
     borderopacity="0.25"
     inkscape:showpageshadow="2"
     inkscape:pageopacity="0.0"
     inkscape:pagecheckerboard="0"
     inkscape:deskcolor="#d1d1d1"
     showgrid="false"
     inkscape:zoom="1.1805"
     inkscape:cx="332.90979"
     inkscape:cy="265.56545"
     inkscape:window-width="1920"
     inkscape:window-height="1001"
     inkscape:window-x="-9"
     inkscape:window-y="-9"
     inkscape:window-maximized="1"
     inkscape:current-layer="g10" />
  <g
     id="g8"
     inkscape:groupmode="layer"
     inkscape:label="ink_ext_XXXXXX"
     transform="matrix(1.3333333,0,0,-1.3333333,0,666.66667)">
    <g
       id="g10"
       transform="scale(0.1)">
      <path
         d="m 2850.64,2607.94 -0.68,-0.51 -0.54,-1.07 c -0.04,-0.17 -0.07,-0.34 -0.1,-0.51 l -0.67,-1.66 1.44,-0.95 c 0.53,-0.45 1.29,-0.91 2.33,-1.41 8.39,-4.02 18.25,-4.78 26.96,-5.46 8.06,-0.6 16.61,-1.19 24.69,-1.19 5.73,0 10.87,0.29 15.72,0.88 7,0.85 13.97,2.43 20.72,3.95 3.05,0.69 4.01,1.24 4.62,1.96 l 0.27,0.32 0.16,0.39 c 0.22,0.56 0.28,1.21 0.28,2.89 l 0.09,23.3 0.01,1.95 -1.89,0.48 c -27.09,6.95 -54.82,15.56 -82.43,25.6 l -3.08,1.12 -0.27,-3.26 c -1.17,-14.33 -2.43,-26.93 -3.86,-38.54 -0.23,-1.95 -0.55,-4.61 -2.13,-6.8 -0.4,-0.54 -0.97,-0.97 -1.64,-1.48"
         style="fill:#ffffff;fill-opacity:1;fill-rule:nonzero;stroke:none"
         id="path14" />
      <path
         d="m 1741.48,3867.8 c 15.52,0 31.27,-0.99 46.81,-2.96 57.68,-7.31 106.63,-27.55 141.57,-58.54 14.85,-13.18 27.74,-28.73 40.21,-43.77 15.85,-19.13 32.2,-38.86 52.44,-53.45 2.83,-2.03 6.12,-4.22 9.57,-4.49 0.24,-0.02 0.5,-0.03 0.76,-0.03 4.12,0 8.47,2.58 13.7,8.14 22,23.3 34.63,55.06 34.69,87.13 0.04,32.05 -12.5,63.84 -34.43,87.22 -12.22,13.03 -27.88,24.41 -49.32,35.79 -38.01,20.2 -81.59,34.42 -137.16,44.77 l -1.28,0.23 -0.92,-0.91 c -1.39,-1.35 -3.3,-2.13 -5.23,-2.13 -0.21,0 -0.41,0.01 -0.62,0.02 -18.33,1.52 -36.14,2.29 -52.94,2.29 -104.43,0 -179.25,-29.29 -222.39,-87.05 -14.55,-19.48 -25.68,-42.7 -33.08,-69.01 l -1.92,-6.83 5.78,4.11 c 53.82,38.35 122.64,59.47 193.76,59.47"
         style="fill:#b99078;fill-opacity:1;fill-rule:nonzero;stroke:none"
         id="path16" />
      <path
         d="m 2818.24,2584.59 c 28.17,-1.31 57.03,-1.94 88.25,-1.94 17.48,0 35.98,0.21 54.97,0.62 21.94,0.43 45.38,1.27 71.67,2.55 7.26,0.33 14.5,0.6 21.7,0.86 16.29,0.61 33.15,1.24 49.82,2.58 53.03,3.91 99.35,10.21 141.62,19.28 10.73,2.3 21.61,4.97 32.31,7.92 l -1.19,4.86 c -45.79,-9.89 -93.72,-14.9 -142.44,-14.9 -31.55,0 -64.5,2.25 -97.93,6.69 l -2.83,0.38 v -2.86 l 0.01,-11.22 c 0,-0.95 0,-2.73 -1.29,-4.12 -1.08,-1.15 -2.54,-1.42 -3.31,-1.56 -12.76,-2.36 -25.9,-3.55 -39.06,-3.55 -14.63,0 -29.17,1.46 -43.24,4.34 -0.34,0.07 -0.69,0.27 -1.1,0.64 l -1.04,0.94 -1.35,-0.4 c -0.82,-0.25 -1.58,-0.43 -2.2,-0.57 -7.01,-1.58 -14.07,-3.16 -21.21,-4.03 -5.06,-0.62 -10.42,-0.92 -16.38,-0.92 -8.23,0 -16.88,0.6 -25.04,1.21 -9.14,0.7 -19.49,1.51 -28.74,5.93 -1.74,0.85 -3.55,1.87 -4.84,3.65 -0.28,0.39 -0.51,0.9 -0.74,1.45 l -0.91,2.1 -2.17,-0.72 c -12.52,-4.16 -25.95,-6.18 -41.06,-6.18 -14.14,0 -28.17,1.68 -38.8,3.15 -8.28,1.14 -17.57,2.95 -23,10.03 -0.61,0.8 -1.19,1.75 -1.8,2.99 l -1.11,2.25 -2.25,-1.11 c -4.38,-2.18 -8.26,-3.59 -12.18,-4.43 -5,-1.07 -10.4,-1.59 -16.52,-1.59 -6.44,0 -13.04,0.58 -18.73,1.13 -13.26,1.28 -27.33,2.91 -40.63,7.36 -1.61,0.53 -4.3,1.42 -6.16,3.55 -2.07,2.34 -2.52,5.44 -2.84,7.69 l -1.58,10.98 -0.77,5.35 -3.57,-4.05 c -2.12,-2.4 -4.11,-4.45 -6.06,-6.27 -3.15,-2.92 -7.45,-6.53 -12.75,-8.44 -4.65,-1.67 -9.43,-1.88 -14.31,-1.96 -1.24,-0.02 -2.48,-0.03 -3.72,-0.03 -7.85,0 -16.09,0.39 -24.51,1.18 l -0.92,-4.9 c 32.78,-9.38 67.92,-16.8 107.42,-22.69 44.07,-6.57 90.7,-10.9 142.51,-13.22"
         style="fill:#080a0b;fill-opacity:1;fill-rule:nonzero;stroke:none"
         id="path18" />
      <path
         d="m 3034.06,2473.26 c 23.23,0 45.89,4.1 67.33,12.19 0.29,0.11 0.58,0.17 0.89,0.17 1.03,0 1.97,-0.66 2.33,-1.63 0.24,-0.62 0.21,-1.3 -0.06,-1.91 -0.27,-0.61 -0.77,-1.07 -1.4,-1.31 -19.4,-6.3 -39.55,-9.47 -60,-9.47 -14.5,0 -28.94,1.62 -42.91,4.82 11.1,-1.84 22.47,-2.86 33.82,-2.86 z m 256.11,75.54 0.19,0.16 c 0.71,0.59 1.38,0.99 2.03,1.25 l 1.15,0.44 0.16,0.06 0.33,0.18 26.96,10.31 c 32.16,16.18 43.58,55.92 47.54,78.17 l 0.61,3.46 -3.47,-0.54 c -3.48,-0.56 -7,-1.04 -10.53,-1.48 l -0.48,-0.06 -0.42,-0.23 c -11.37,-6.3 -23.69,-11.91 -37.67,-17.17 -21.45,-7.77 -44.12,-14.16 -69.28,-19.52 -11.76,-2.51 -24.28,-4.86 -38.28,-7.18 l -0.61,-0.1 -0.49,-0.37 c -44.98,-34.07 -94.49,-51.35 -147.16,-51.35 -42.56,0 -86.97,11.5 -128.46,33.26 l -0.55,0.29 h -0.63 c -7.47,-0.07 -14.94,-0.11 -22.41,-0.11 -32.33,0 -61.98,0.67 -90.65,2.04 -51.98,2.4 -98.72,6.79 -142.93,13.44 -53.1,7.99 -98.81,18.76 -139.75,32.93 -50.72,17.81 -90.08,39.44 -120.32,66.14 l -0.52,0.47 -0.7,0.12 -0.79,0.17 -0.59,0.13 -7.4,1.56 5,-5.66 c 6.2,-7 12.03,-13.14 17.86,-18.76 28.97,-27.86 64.86,-53.16 109.74,-77.36 68.47,-36.78 148.68,-66.57 252.42,-93.77 l 32.73,-8.22 33.03,-7.49 c 9.64,-2.01 20.01,-4.61 32.68,-8.17 l 32.67,-8.87 65.3,-17.71 c 3.53,-0.89 6.98,-1.86 10.4,-2.81 7.27,-2.05 14.78,-4.16 22.24,-5.2 9.7,-1.49 19.91,-2.25 30.32,-2.25 l 2.92,0.02 c 23.15,0.35 45.03,4.71 65.05,12.94 9.07,3.82 17.88,8.53 29.48,15.75 l 29.01,17.42 c 39.67,23.41 76.97,44.2 114.03,63.55 l 0.24,0.12"
         style="fill:#e8ba81;fill-opacity:1;fill-rule:nonzero;stroke:none"
         id="path20" />
      <path
         d="m 3027.12,2598.37 2.07,0.37 v 15.35 l -2.14,0.31 c -12,1.76 -23.03,3.6 -33.71,5.65 -12.68,2.43 -25.91,5.32 -39.33,8.59 l -3.07,0.75 -0.02,-3.17 -0.08,-20.68 c 0,-1.09 -0.18,-2.44 -0.48,-3.69 l -0.62,-2.57 2.59,-0.48 c 12.75,-2.35 25.81,-3.55 38.82,-3.55 12.18,0 24.29,1.05 35.97,3.12"
         style="fill:#ffffff;fill-opacity:1;fill-rule:nonzero;stroke:none"
         id="path22" />
      <path
         d="m 3304.58,2638.11 c -44.07,0.67 -91.02,8.87 -139.54,24.39 -71.15,22.75 -140.11,59.19 -195.52,88.47 -45.54,24.05 -93.85,49.85 -139.98,77.55 -8.06,4.84 -16.08,9.75 -24.12,14.67 -38.3,23.46 -77.91,47.72 -120.73,63.08 -19.92,7.14 -50.82,15.66 -84.94,15.66 -27.1,0 -51.99,-5.4 -73.96,-16.04 -19.55,-9.46 -37.03,-23.3 -53.93,-36.68 -8.72,-6.9 -17.67,-14 -26.97,-20.55 l -6.05,-4.28 c -19.85,-14.12 -38.6,-27.45 -62.01,-27.45 -4.31,0 -8.77,0.45 -13.28,1.33 l -2.75,0.54 -0.22,-2.8 c -1.43,-18.93 2.47,-40.09 11,-59.59 8.88,-20.36 22.84,-39.52 41.49,-56.94 l 0.06,-0.05 0.34,-0.3 0.52,-0.43 0.95,-0.36 c 2.19,-0.37 4.49,-0.56 6.85,-0.56 10.71,0 22.16,3.78 31.4,10.38 10.02,7.14 18.02,16.22 26.48,25.82 5.59,6.35 11.37,12.92 17.78,18.81 22.61,20.8 53.59,32.74 85.01,32.74 7.41,0 14.79,-0.68 21.92,-2.01 28.96,-5.4 54.77,-20.81 79.73,-35.72 l 7.27,-4.33 c 99.95,-59.25 201.86,-99.11 302.91,-118.49 46.78,-8.98 94.04,-13.52 140.44,-13.52 59.08,0 116.43,7.31 170.46,21.74 l -0.61,4.92"
         style="fill:#e8ba81;fill-opacity:1;fill-rule:nonzero;stroke:none"
         id="path24" />
      <path
         d="m 3320.63,2630.27 3.55,1.45 1.7,0.68 c 0.97,0.38 1.93,0.77 2.89,1.17 l -1.09,4.8 c -0.86,-0.04 -1.73,-0.05 -2.6,-0.06 l -2.16,-0.04 -3.35,-0.12 1.06,-3.18 0.11,-0.3 c 0.01,-0.17 0,-0.39 0,-0.56 l -0.11,-3.84"
         style="fill:#2ebbe3;fill-opacity:1;fill-rule:nonzero;stroke:none"
         id="path26" />
      <path
         d="m 3043.49,2358.63 c -12.93,-61.32 -7.44,-127.06 15.61,-185.15 0.25,-0.63 0.24,-1.3 -0.03,-1.92 -0.26,-0.61 -0.75,-1.08 -1.37,-1.33 -0.3,-0.11 -0.61,-0.18 -0.92,-0.18 -1.04,0 -1.95,0.62 -2.33,1.58 -21.79,59.36 -25.68,125.74 -10.96,187 z m 153.69,-134.22 c 61.95,92.13 74.81,194.83 88.43,303.55 l 1.11,8.85 0.59,4.75 -4.23,-2.23 c -33.32,-17.55 -67.1,-36.35 -100.4,-55.87 l -0.72,-0.43 -0.32,-0.76 c -34.35,-81.49 -114.5,-102.77 -119.78,-104.09 -111.3,0.99 -282.8,107.86 -316.07,129.28 l -0.31,0.2 -0.35,0.1 c -83.47,24.16 -149.99,50.31 -209.36,82.28 -45.14,24.43 -81.29,49.98 -110.47,78.12 -14.73,14.26 -27.38,29.12 -37.59,44.13 l -2.7,3.97 -1.7,-4.48 c -19.44,-50.9 -107.63,-313.85 65.13,-491.68 13.64,-9.73 28.74,-18.81 46.5,-28.04 100.96,-52.35 215.01,-76.17 313.27,-92.57 52.93,-8.81 96.86,-14.69 139.23,-14.69 69.39,0 123.47,16.62 170.2,52.27 20.58,15.7 39.9,35.13 59.06,59.38 6.87,8.67 13.57,17.82 20.48,27.96"
         style="fill:#e8ba81;fill-opacity:1;fill-rule:nonzero;stroke:none"
         id="path28" />
      <path
         d="m 1742.66,1960.62 -1.93,-1.55 c -23.04,-18.6 -63.61,-58.11 -52.16,-74.46 l 0.17,-0.24 0.01,-0.01 c 81.91,-119.82 199.09,-227.95 348.41,-321.59 65.78,-41.14 136.85,-78.98 211.23,-112.49 35.11,-15.69 72.83,-31.99 110.86,-44.91 39.31,-13.44 78.05,-24.07 115.13,-31.61 58.59,-12.1 118.39,-18.24 177.74,-18.24 19.97,0 40.16,0.7 59.99,2.09 90.76,6.34 166.53,23.62 231.63,52.85 37.93,17.09 71.75,38.32 100.51,63.09 30.18,25.82 55.67,56.45 75.74,91.07 19.51,33.81 33.71,71.13 42.2,110.94 8.27,39.15 10.95,77.35 8.01,113.55 l -0.07,0.83 -0.56,0.63 c -0.92,1.03 -1.48,2.03 -1.74,3.05 l -10.24,40.96 -0.36,1.46 -1.48,0.37 -88.92,21.66 -4.84,1.17 1.95,-4.58 30.25,-71.3 c 0.52,-0.86 0.79,-1.33 1.07,-1.8 0.37,-0.62 0.75,-1.25 1.16,-1.85 0.81,-1.2 1.18,-2.66 1.11,-4.47 l -0.01,-0.26 0.04,-0.25 c 0.17,-1 0.18,-1.85 0.05,-2.59 -50.17,-274.21 -290.81,-303.81 -391.95,-303.81 -24.24,0 -40.19,1.7 -43.14,2.04 -506.7,8.49 -877.66,439.26 -918.29,488.35 l -1.57,1.9"
         style="fill:#fce19d;fill-opacity:1;fill-rule:nonzero;stroke:none"
         id="path30" />
      <path
         d="m 2766.68,2697.15 -3.09,1.51 -0.48,-3.4 -6.19,-42.61 c -1.02,-7.13 -2.18,-15.2 -6.04,-22.16 -2.01,-3.63 -5.02,-7.03 -9.22,-10.41 l -1.4,-1.12 0.61,-1.67 c 0.5,-1.38 1.09,-2.5 1.83,-3.45 4.26,-5.58 12.41,-7.12 19.7,-8.12 10.44,-1.44 24.21,-3.1 38.06,-3.1 16.62,0 30.87,2.35 43.53,7.18 2.06,0.8 3.45,1.49 4.23,2.55 0.76,1.07 1.02,2.66 1.23,4.47 1.62,13.27 3.01,27.09 4.11,41.09 l 0.15,1.87 -1.76,0.66 c -29.24,11.01 -57.93,23.36 -85.27,36.71"
         style="fill:#ffffff;fill-opacity:1;fill-rule:nonzero;stroke:none"
         id="path32" />
      <path
         d="m 4238.04,-31.3984 c -55.31,139.2964 -108.7,418.7964 -165.21,714.6994 -66.09,346.089 -134.49,704.099 -207.69,833.299 -58.8,103.9 -197.1,168.8 -334.81,208.9 -161.09,46.9 -321.19,60 -351.79,62.2 l -2.91,0.2 0.21,-2.9 c 2.6,-35.2 -0.11,-72.5 -7.9,-110.7 -8.4,-40.4 -22.61,-78.4 -42.31,-112.9 -20.3,-35.4 -46.09,-66.8 -76.69,-93.2 -29.2,-25.4 -63.5,-47.2 -102.01,-64.8 -65.8,-29.9 -142.5,-47.79 -234.2,-54.7 -21.49,-1.6 -43.3,-2.4 -65,-2.4 -58.59,0 -117.59,5.9 -175.39,17.5 -37.6,7.5 -76.8,18 -116.6,31.4 -36.4,12.2 -71.1,26.69 -112,44.7 -75,33.4 -146.8,71.1 -213.2,112.2 -71.8,44.5 -137,92.9 -193.7,143.6 -60.4,54.2 -112.6,112.41 -155.4,173.1 l -1.3,1.81 -1.9,-1.01 -235.2,-124.7 c -0.8,-0.4 -1.7,-0.7 -2.61,-0.8 -3.99,-0.5 -400.09,-55 -511.895,-398.8 -110.699,-340.6 -86.5,-725.3 -75,-769.691 l 0.305,-0.91 0.801,-0.5 C 860.938,570 858.137,554.801 847.637,498.301 837.836,445.609 821.438,357.398 797.141,205 l -39.004,-235 -0.5,-2.8984 h 2.898 l 988.705,0.1992 h 2.4 l 0.1,2.3008 18.89,373.6994 9.61,189.097 4.7,94.602 2.4,47.301 0.59,11.801 c 0.11,1.796 0.31,4.097 0.51,5.898 l 0.6,5.801 1.7,18.5 0.5,5 c 3.7,48.597 5.9,96.699 6.4,144.308 v 0.692 c 0.8,79.308 -3,156.809 -11.3,231.809 -7.3,65.39 -18.6,127.69 -33.6,185.19 -7.31,28.3 -16.5,57.6 -28.1,89.6 -11,29.3 -23.9,58.1 -38.2,85.6 l -0.2,0.6 c -9,20.7 -20.61,43.3 -34.5,67.2 -13.3,22.6 -27.3,43.8 -41.7,63.2 -32.4,43.7 -67.6,80 -104.8,107.7 -3.3,2.5 -4,7.19 -1.5,10.6 0.5,0.6 1,1.2 1.69,1.59 1.21,0.91 2.7,1.41 4.31,1.41 1.6,0 3.19,-0.5 4.5,-1.5 38.2,-28.8 74.4,-66.19 107.5,-111.19 14.6,-19.81 28.8,-41.61 42.3,-64.61 0.9,-1.61 1.79,-3.2 2.6,-4.7 13.2,-23.19 23.5,-43.6 32.3,-63.9 13.6,-26.4 25.7,-53.7 36.2,-81.4 0.29,-0.6 0.49,-1.2 0.69,-1.8 0.61,-1.3 1.11,-2.7 1.61,-4 11.7,-32.5 20.89,-62.3 28.19,-91 3.91,-15.2 7.61,-30.8 10.91,-46.7 0.6,-2.7 1.2,-5.5 1.79,-8.3 8.71,-42.2 15.61,-86.4 20.51,-132.1 2.6,-23.8 4.7,-47.8 6.2,-72 6.8,-99.202 5.9,-202.202 -2.6,-307.202 l -0.1,-1.199 0.9,-0.801 c 7.59,-6.996 20.8,-18.199 40.2,-31.898 l 0.6,-0.5 h 0.1 c 129.4,-82.301 285,-128.801 438.2,-130.898 h 11.1 c 151.7,0 300.59,41.199 430.5,119.199 0.4,0.199 0.8,0.301 1.29,0.301 0.9,0 1.7,-0.403 2.1,-1.204 0.4,-0.597 0.5,-1.199 0.31,-1.898 -0.1,-0.602 -0.6,-1.199 -1.11,-1.5 -129.69,-76.891 -277.89,-117.602 -428.79,-117.602 -5.2,0 -10.3,0.102 -15.4,0.204 -34.9,0.597 -70.7,3.699 -106.6,9 l -0.9,0.097 -0.8,-0.398 -395.2,-239.102 -1.1,-0.699 -0.1,-1.301 -9.51,-161.597 -0.09,-1.204 1,-0.796 0.2,-0.2 0.2,-0.101 65.7,-61.1994 c 0.9,-0.8008 1.4,-1.9922 1.4,-3.3008 l -1.6,-122 -0.1,-2.5 h 2.6 l 1751.3,0.3008 h 2.79 l -0.4,2.8984 c -3.99,28.800781 -7.19,56.8008 -9.6,84 -2.59,29 -4.29,57.199 -5,84.301 -3.19,123.398 12.41,227.801 46.91,311.699 l 0.1,0.398 0.09,0.301 0.11,2.102 c 1,12.308 4.3,54.5 8.3,105 V 559 l -0.3,0.699 c -32.1,55.91 -135.61,90.699 -166.51,100 l -0.69,0.199 -0.7,-0.199 c -15.61,-4.5 -30.21,-7.5 -44.5,-9.09 -10.2,-1.218 -20.8,-1.91 -31.51,-1.91 -31.99,0 -65.69,5.301 -102.89,16.102 -42.3,12.199 -82.3,29.199 -126.6,48.597 44.49,-18.796 84.6,-35.5 126.99,-47.296 C 3321.44,656 3354.14,651 3385.23,651 c 11.51,0 22.9,0.699 33.71,2.109 40.2,5 82.5,20.493 125.89,46.09 37.81,22.301 73.3,49.903 103.71,74 l 0.8,0.703 0.09,0.996 0.4,4.204 c 0.11,0.597 0.21,1.296 0.5,2 1.31,3.5 134.41,355.398 -5.5,708.198 -0.69,1.8 -0.69,3.9 0.11,5.7 0.79,1.89 2.3,3.3 4.09,4 0.91,0.39 1.91,0.6 2.81,0.6 3.1,0 5.8,-1.9 7,-4.8 134.5,-339.19 18.89,-681.499 6.79,-715.499 -0.4,-1 -0.59,-1.801 -0.8,-2.301 l -0.19,-0.301 v -0.398 l -0.21,-2.903 c -3.49,-39.296 -14.2,-175 -20.69,-258 l -0.91,-11.296 c -0.5,-5.403 -0.9,-10.602 -1.19,-15.403 l -0.4,-4.699 -0.7,-8.699 -0.6,-7.602 -0.51,-6.5 -0.99,-12.699 c -0.1,-0.801 -0.21,-1.5 -0.5,-2.301 -48.91,-117.898 -59.5,-278.199 -31.5,-476.3982 l 0.3,-2.1992 h 2.1 l 377.69,0.0976 249.2,-2.5 h 3.7 l -1.39,3.4024"
         style="fill:#7a7d7e;fill-opacity:1;fill-rule:nonzero;stroke:none"
         id="path34" />
      <path
         d="m 2428.86,4365.93 c 37.58,9.92 77.48,14.9 118.66,14.9 34,0 68.93,-3.4 103.81,-10.11 68.01,-13.08 138.61,-39.16 209.86,-77.5 1.21,-0.65 1.67,-2.17 1.02,-3.38 -0.43,-0.82 -1.28,-1.32 -2.21,-1.32 -0.41,0 -0.81,0.1 -1.17,0.3 -70.5,38.92 -140.47,65.62 -208,79.37 -36.57,7.45 -73.19,11.22 -108.84,11.23 -39.11,0 -77.15,-4.56 -113.03,-13.54 h -0.02 c 0,0 -0.06,0 -0.08,0.05 z m -379.12,-970 c 0.33,0 0.66,-0.07 0.96,-0.2 1.27,-0.53 1.87,-2 1.34,-3.27 -8.22,-18.33 -16.69,-37.24 -28.4,-54.44 -12.5,-18.75 -28.23,-32.84 -45.49,-40.75 -13.21,-6.26 -28.54,-9.56 -44.35,-9.56 -5.24,0 -10.56,0.36 -15.84,1.06 -20.55,2.89 -39.99,11.92 -54.71,25.43 15.04,-13.05 34.5,-21.63 54.92,-24.08 4.44,-0.51 8.91,-0.76 13.31,-0.76 16.42,0 32.18,3.54 45.58,10.24 16.58,8.02 31.61,22.05 43.45,40.55 11.17,17.13 19.54,36.85 26.92,54.24 0.39,0.94 1.3,1.54 2.31,1.54 z m -426.29,97.37 c 42.18,-127.78 147.4,-233.67 274.74,-276.31 1.31,-0.44 2.02,-1.86 1.58,-3.17 -0.34,-1.02 -1.29,-1.71 -2.37,-1.71 -0.27,0 -0.53,0.05 -0.79,0.14 -127.81,44.57 -232.47,152.25 -273.16,281.05 z m 281.34,599.75 v 0 1.25 c -0.03,0 -0.07,0.02 -0.08,0.07 26.95,2.21 54.29,3.29 81.33,3.29 73.38,0 146.88,-7.86 218.45,-23.34 0.65,-0.14 1.21,-0.53 1.57,-1.09 0.36,-0.56 0.48,-1.23 0.34,-1.89 -0.25,-1.14 -1.27,-1.97 -2.44,-1.97 -0.18,0 -0.36,0.02 -0.53,0.06 -76.52,17.86 -155.23,26.9 -234,26.9 -21.49,0 -43.24,-0.68 -64.64,-2.03 v -1.25 z m -9.55,-905.77 c 0.58,-0.06 1.19,-0.25 1.93,-0.53 l 0.38,-0.14 0.4,-0.02 c 5.44,-0.21 10.99,-0.37 16.57,-0.37 21.83,0 38.74,2.48 53.2,7.81 39.76,14.62 65.07,52.19 79.31,81.13 18.92,38.46 29.58,81.42 30.83,124.23 0.04,1.31 1.38,2.43 2.45,2.43 1.5,-0.05 2.59,-1.2 2.55,-2.58 -1.16,-39.35 -10.33,-79.39 -26.54,-115.8 l -0.14,-0.32 -0.05,-0.34 c -7.48,-51.16 -39.59,-218.09 -138.55,-218.09 -3.38,0 -6.85,0.2 -10.31,0.59 l -2.51,0.28 -0.26,-2.51 c -11.46,-109.93 -55.51,-214.27 -80.74,-266.68 l -2.95,-6.15 6.22,2.78 c 32.43,14.44 69.92,16.7 71.5,16.79 3.05,0 5.58,-1.39 6.93,-3.72 1.43,-2.47 1.36,-5.48 -0.2,-7.87 -24.03,-36.79 -18.65,-86.43 -13.3,-112.75 l 0.98,-4.84 3.32,3.66 c 33.87,37.3 98.77,37.73 101.52,37.73 2.74,0 5.26,-1.49 6.58,-3.88 17.33,-31.6 36.4,-62 56.67,-90.37 l 0.41,-0.58 0.66,-0.27 c 2.49,-1.04 4.15,-3.33 4.43,-6.13 l 0.07,-0.68 0.41,-0.54 c 104.69,-142.9 207.24,-189.76 208.26,-190.21 1.83,-0.83 3.28,-2.41 3.97,-4.3 0.19,-0.51 19.27,-50.23 118.63,-158.14 l 3.92,3.07 c -125.27,190.83 -24.83,439.84 -20.8,449.59 l 0.22,0.37 0.62,1.23 -0.71,1.19 c -9.36,15.57 -20.32,36.67 -22.17,61.98 l 0.02,0.42 c -2.52,13.49 -2.86,26.35 -1.05,38.7 l 0.1,0.68 -0.26,0.64 c -0.23,0.54 -0.3,0.98 -0.23,1.36 0.15,0.81 14.84,81.15 42.61,143.97 3.33,7.54 8.36,15.67 14.96,24.17 l 1.24,1.6 -1.31,1.55 -93.54,110.54 c -0.45,0.53 -0.66,1.23 -0.57,1.92 l 17.19,143.18 0.19,1.57 -1.34,0.84 c -21.01,13.27 -206.46,134.95 -247.07,320.25 -22.49,102.65 2.2,207.25 73.41,310.89 76.37,111.17 181.21,167.55 311.62,167.55 161.3,0 307.55,-86.02 335.24,-103.26 l 1.67,-1.03 1.39,1.37 c 18.66,18.26 117.57,109.36 233.36,109.36 3.48,0 6.96,-0.09 10.47,-0.26 55.09,-2.62 106.21,-26.18 151.96,-70.04 l 3.61,3.46 c -11.91,13.46 -28.45,29.14 -49.17,46.61 -64.63,54.22 -150.38,109.47 -151.23,110.02 -1.69,1.09 -2.9,2.86 -3.3,4.85 -0.39,1.98 0.04,4.08 1.2,5.74 15.16,21.82 67.52,40.13 97.38,49.11 l 5.98,1.8 -5.57,2.82 c -71.13,36.11 -178.26,54.52 -182.78,55.29 -2.32,0.37 -4.32,1.78 -5.42,3.79 -1.12,2.02 -1.24,4.41 -0.33,6.55 19.57,46.16 119.53,96.47 161.59,115.95 l 6.11,2.84 -6.47,1.84 c -76.72,21.82 -164.98,32.89 -262.29,32.89 -230.02,0 -437.85,-61.97 -446.58,-64.6 l -525.68,-257.47 -1.79,-0.88 0.46,-1.95 c 9.02,-38.31 14.51,-118.62 15.51,-134.33 l 0.13,-1.94 1.91,-0.36 c 55.59,-10.43 99.29,-24.75 137.54,-45.07 21.93,-11.65 38.02,-23.34 50.63,-36.79 22.78,-24.29 35.82,-57.34 35.78,-90.65 -0.05,-33.32 -13.19,-66.32 -36.05,-90.55 -4.47,-4.74 -8.67,-7.66 -12.84,-8.93 l -3.6,-1.1 2.41,-2.89 c 11.35,-13.61 17.78,-31.66 17.64,-49.54 -0.09,-21.62 -10.29,-42.53 -27.27,-55.95 -7.44,-5.95 -16.75,-10.54 -28.46,-14.05 -4.68,-1.52 -9.54,-2.56 -14.25,-3.56 -5.64,-1.21 -10.97,-2.35 -15.81,-4.21 -9.32,-3.4 -15.8,-12.03 -21.63,-20.58 -5.67,-8.54 -10.33,-17.81 -13.87,-27.58 -5.48,-15.1 -10.5,-37.88 -3.28,-60.57 0.9,-3.02 2.13,-5.71 3.42,-8.55 0.84,-1.84 1.72,-3.77 2.58,-5.96 0.7,-1.95 1.42,-4.99 0.7,-8.06 -0.58,-2.53 -2.08,-5.02 -4.22,-7.02 -3.5,-3.21 -7.86,-5.41 -14.14,-7.14 -5.03,-1.46 -10.23,-2.45 -15.49,-2.97 -2.71,-0.26 -5.49,-0.39 -8.25,-0.39 -18.57,0 -36.71,5.88 -51.09,16.57 -16.83,12.51 -28.9,31.33 -33.12,51.61 4.54,-20.14 16.71,-38.74 33.56,-51 8.76,-6.38 18.84,-10.94 29.98,-13.55 l 2.14,4.38 c -6.7,5.42 -11.4,15.72 -14.84,23.24 l -0.26,0.59 c -11.71,25.63 -14.54,56.41 -7.98,86.68 7.53,34.73 26.25,68.97 57.24,104.66 3.18,3.66 7.13,8.21 7.37,13.99 0.15,3.51 -1.14,6.75 -2.17,9.36 -29.01,73.08 -75.19,139.93 -133.56,193.31 l -0.61,0.56 -0.82,0.08 c -12.73,1.34 -25.62,2.01 -38.32,2.01 -74.76,0 -145.93,-23.33 -200.41,-65.69 l -0.72,-0.56 -0.19,-0.89 c -26.14,-120.42 27.41,-260.47 27.95,-261.86 104.8,-323.03 325.06,-346.24 327.27,-346.43"
         style="fill:#b99078;fill-opacity:1;fill-rule:nonzero;stroke:none"
         id="path36" />
      <path
         d="m 2520.39,2641.49 c 6.79,-3.75 14.47,-5.62 21.77,-7.1 16.89,-3.43 34.27,-5.17 51.63,-5.17 l 3.6,0.03 c 4.25,0.06 8.73,0.24 12.69,1.67 4.47,1.61 8.25,4.8 11.03,7.4 14.55,13.54 24.91,33.07 29.15,55 3.71,19.18 3.04,40.5 -2.01,63.39 -0.2,0.92 0.24,1.66 0.52,2.03 l 1.85,2.38 -2.7,1.37 c -16.61,8.43 -30.73,13.55 -44.45,16.11 -6.81,1.26 -13.84,1.9 -20.91,1.9 -29.44,0 -58.72,-11.03 -80.32,-30.26 l -0.56,-0.49 -0.2,-0.73 c -4.75,-17.95 -10.14,-38.28 -8.67,-58.43 1.24,-17.09 9.14,-38.96 27.58,-49.1"
         style="fill:#ffffff;fill-opacity:1;fill-rule:nonzero;stroke:none"
         id="path38" />
      <path
         d="m 2488.18,2735.98 -1.66,-1.85 c -1.04,-1.16 -2.08,-2.31 -3.1,-3.47 -8.27,-9.38 -16.82,-19.09 -27.32,-26.58 -8.43,-6.02 -18.76,-9.94 -29.08,-11.06 l -5.99,-0.65 4.69,-3.78 c 21.21,-17.12 46.17,-31.75 76.31,-44.75 l 2.85,3.97 c -9.81,10.95 -15.87,26.02 -17.06,42.42 -1.15,15.89 1.88,31.6 4.66,43.51 l -4.3,2.24"
         style="fill:#080a0b;fill-opacity:1;fill-rule:nonzero;stroke:none"
         id="path40" />
      <path
         d="m 2638.64,2651.49 -0.77,-1.15 0.57,-1.26 c 0.15,-0.33 0.25,-0.55 0.27,-0.63 l 2.74,-19.08 c 0.3,-2.12 0.62,-3.98 1.65,-5.12 0.81,-0.92 2.17,-1.51 3.98,-2.1 12.87,-4.31 26.59,-5.89 39.53,-7.13 6.85,-0.66 12.57,-1.11 18.21,-1.11 5.79,0 10.85,0.48 15.5,1.49 11.9,2.55 21.44,8.94 26.18,17.51 3.41,6.15 4.46,13.39 5.47,20.4 l 6.58,45.37 v 0.02 l 0.12,0.42 0.39,1.88 -1.72,0.87 c -24.22,12.13 -46.64,24.33 -68.5,37.29 l -7.3,4.34 c -7.68,4.59 -15.89,9.45 -24.24,14.04 l -4.74,2.6 1.09,-5.3 c 4.65,-22.63 5.17,-43.65 1.52,-62.46 -2.86,-14.77 -8.58,-28.91 -16.53,-40.89"
         style="fill:#ffffff;fill-opacity:1;fill-rule:nonzero;stroke:none"
         id="path42" />
      <path
         d="m 2623.59,1701.84 c -0.1,-0.67 -0.46,-1.24 -0.99,-1.64 -0.43,-0.32 -0.94,-0.49 -1.48,-0.49 -0.81,0 -1.54,0.37 -2.02,1.02 -53.4,75.43 -93.89,158.49 -120.4,246.89 28.15,-87.7 69.96,-169.78 124.43,-243.93 0.4,-0.54 0.56,-1.2 0.46,-1.85 z m 274.52,-95.96 -1.98,-13.94 c -0.35,-1.38 -0.69,-3.02 -1.02,-4.66 -0.62,-3 -1.2,-5.83 -2.19,-8.61 -2.62,-9.55 -7.05,-18.1 -12.87,-24.92 -6.09,-7.18 -15.28,-11.97 -24.58,-12.83 -1.74,-0.2 -3.44,-0.28 -5.12,-0.28 -6.76,0 -14.05,1.39 -22.3,4.25 -15.06,5.42 -29.7,13.79 -47.43,27.1 -14.49,10.99 -28.27,23.13 -40.94,36.09 13.09,-12.6 27.09,-24.39 41.74,-34.98 17.58,-12.64 32.65,-20.82 47.43,-25.77 7.44,-2.41 14.32,-3.63 20.47,-3.63 1.96,0 3.89,0.13 5.74,0.37 8.7,1.09 16.58,5.42 22.19,12.23 5.3,6.54 9.25,14.69 11.43,23.56 0.89,2.58 1.41,5.48 1.92,8.28 0.27,1.53 0.54,3.04 0.88,4.54 l 1.62,13.4 c 0.19,1.64 1.26,2.59 2.52,2.59 0.96,-0.1 1.56,-0.43 1.97,-0.96 0.42,-0.51 0.59,-1.17 0.52,-1.83 z m 50.94,76.07 c 21.83,0.73 45.32,7.29 72.05,20.08 17.4,8.48 34.59,18.7 51.15,30.38 l 0.73,0.52 0.23,0.85 c 3.96,14.1 6.85,26.21 9.09,38.1 l 0.15,0.76 -0.3,0.69 -1.19,2.81 c -15.9,24.7 -28.23,52.38 -36.85,82.63 l -1.39,4.86 -3.01,-4.06 c -14.09,-18.91 -54.98,-62.89 -130.27,-62.89 -44.81,0 -94.85,15.58 -148.7,46.3 -44.02,25.11 -90.24,49.33 -134.95,72.76 -165.52,86.76 -336.67,176.47 -421.68,325.81 -86.31,151.62 -123.14,293.84 -134.96,347.94 l -4.93,-0.27 c -28.31,-264.35 -231.06,-637.43 -254.09,-679.1 l -0.88,-1.61 1.26,-1.33 c 35.12,-36.82 92.45,-92.92 166.14,-151.13 l 0.38,-0.31 0.47,-0.12 2.43,-0.71 17.12,-5.05 34.3,-9.96 c 23.21,-6.68 46.36,-13.12 68.82,-19.17 47.3,-12.72 93.93,-24.34 138.6,-34.53 50.17,-11.22 95.98,-20.3 140.05,-27.74 52.16,-8.43 98.46,-14.03 141.58,-17.11 1.44,-0.11 2.48,-1.31 2.38,-2.68 -0.09,-1.31 -1.19,-2.32 -2.49,-2.32 -43.44,3.47 -89.86,9.47 -142.11,18.37 -44.04,7.83 -89.84,17.31 -139.99,28.97 -44.58,10.57 -91.14,22.59 -138.38,35.73 -22.34,6.2 -45.44,12.86 -68.67,19.76 l -34.23,10.25 -6.46,1.97 -2.26,-4.37 c 150.73,-116.82 390.15,-257.05 674.85,-261.65 0.27,-0.01 0.56,-0.03 0.87,-0.07 3.26,-0.43 20.88,-2.55 47.5,-2.55 85.82,0 292.61,23.58 359.15,242.01 l 2.16,7.11 -6.02,-4.36 c -14.53,-10.54 -29.48,-19.88 -44.45,-27.79 -27.19,-14.04 -50.36,-21.27 -72.87,-22.77 v 0 c -1.48,0 -2.57,1.03 -2.66,2.33 -0.09,1.37 0.96,2.57 2.33,2.66"
         style="fill:#b99078;fill-opacity:1;fill-rule:nonzero;stroke:none"
         id="path44" />
      <path
         d="m 3354.93,2737.38 c -0.47,-0.48 -1.09,-0.75 -1.76,-0.76 l -0.02,-1.24 c -0.01,0 -0.01,-0.01 -0.02,-0.01 v 1.25 c -1.35,0 -2.48,1.11 -2.5,2.47 0.62,16.64 1.01,32.77 -0.79,48.51 -2.06,18.13 -7.13,33.46 -15.05,45.57 8.74,-11.72 14.61,-26.95 17.6,-45.2 2.61,-15.85 3.02,-31.48 3.24,-48.81 0.01,-0.67 -0.23,-1.3 -0.7,-1.78 z m -90.14,-29.01 c -0.41,-0.53 -0.99,-0.87 -1.66,-0.96 l -0.33,-0.02 c -1.25,0 -2.31,0.93 -2.48,2.17 -0.72,7.52 -1.34,14.82 -1.95,22.11 -1.16,13.87 -2.37,28.21 -4.15,42.11 -2.47,18.32 -7.18,41.63 -21.78,59.42 6.86,-7.59 12.31,-16.95 16.27,-27.68 3.33,-8.89 5.89,-18.84 8.05,-31.32 2.33,-14.04 4.08,-28.29 5.76,-42.07 0.89,-7.3 1.79,-14.6 2.76,-21.91 0.09,-0.66 -0.08,-1.31 -0.49,-1.85 z m -114.81,-28.32 c -0.24,-1.17 -1.25,-1.63 -1.67,-1.77 l -1.86,-0.64 -1.02,1.6 c -0.35,0.56 -0.48,1.21 -0.34,1.84 7.2,32.14 7.92,66.27 2.06,98.71 -5.69,32.03 -18.48,63.75 -36.98,91.71 -18.81,28.08 -43.09,52.3 -70.22,70.05 -5.32,3.58 -11,6.94 -16.5,10.19 -8.66,5.11 -17.6,10.39 -25.69,16.85 -10.75,8.57 -23.9,22.77 -25.51,41.74 1.53,-14.7 10.71,-29.31 25.98,-41.15 7.95,-6.22 16.93,-11.37 25.6,-16.36 5.57,-3.21 11.34,-6.52 16.84,-10.12 27.57,-17.56 52.33,-41.68 71.63,-69.76 19.07,-28.06 32.41,-60.03 38.57,-92.44 6.36,-32.93 6.04,-67.66 -0.89,-100.45 z m -213.9,413.05 c -10.87,-8.82 -31.36,-13.79 -41.75,-15.35 -15.58,-2.07 -33.17,-3.16 -50.8,-3.16 -99.84,0 -208.1,32.41 -212.54,123.39 0.75,26.71 26.04,38.81 47.48,41 5.27,0.82 10.41,1.23 15.39,1.23 42.58,0 73.32,-28.87 105.86,-59.43 20.6,-19.35 41.9,-39.35 66.94,-52.23 21.91,-11.27 42.87,-17.13 62.29,-17.4 5.64,-0.09 9,-4.01 10.15,-7.34 1.4,-4.04 0.28,-8.05 -3.02,-10.71 z m -197.79,274.4 c -2.22,0 -4.4,-0.02 -6.6,-0.08 l -0.04,-1.25 c -0.01,0 -0.02,0 -0.03,0 v 1.25 c -1.37,0 -2.46,1.07 -2.5,2.43 -0.04,1.38 1.06,2.53 2.43,2.57 54.62,-0.18 108.71,-18.12 152.39,-50.52 -42.41,29.36 -94.1,45.6 -145.65,45.6 z m 394.49,8.87 -0.39,-1.13 c -0.06,-0.01 -0.09,-0.04 -0.14,-0.04 -0.05,0 -0.1,0 -0.14,0 l 0.17,1.22 c -3.27,0.67 -6.77,1.02 -10.43,1.02 -9.62,0 -19.32,-2.29 -27.54,-4.53 -11.3,-3.11 -24.6,-6.92 -37.62,-11.64 -14.5,-5.31 -25.78,-10.63 -35.53,-16.71 -11.61,-7.1 -21.51,-15.81 -29.4,-25.87 l -0.09,-0.06 c -0.02,0 -0.03,0 -0.04,0.01 7.6,10.47 17.29,19.53 28.78,27.05 9.68,6.47 20.91,12.18 35.36,17.99 12.97,5.15 26.24,9.4 37.51,12.87 8.94,2.69 19.4,5.57 30.34,5.57 3.28,0 6.51,-0.26 9.58,-0.79 0.66,-0.11 1.23,-0.47 1.62,-1.02 0.39,-0.54 0.54,-1.2 0.42,-1.86 -0.2,-1.21 -1.24,-2.08 -2.46,-2.08 z m -76.92,-231.81 c 22.75,16.59 40.7,39.64 58.08,61.94 30.51,39.18 59.34,76.19 110.67,76.22 1.47,0.08 2.82,0.12 4.16,0.12 20.82,0 44.69,-8.8 49.25,-33.47 3.16,-29.72 -5.6,-56.69 -26.07,-79.99 -45.78,-52.11 -143.86,-77.63 -215.62,-79.28 h -0.61 c -12.9,0 -31.89,2.28 -42.98,8.71 -3.66,2.13 -5.39,5.91 -4.62,10.12 0.62,3.47 3.33,7.87 8.89,8.82 19.14,3.27 38.94,12.29 58.85,26.81 z m 280.15,-58.62 -0.51,0.95 -1.04,0.28 c -9.42,2.57 -19.48,3.87 -29.91,3.87 -19.47,0 -36.25,-4.42 -46.89,-8.13 -8.67,-5.08 -16.92,-9.84 -25.11,-14.56 l -1.09,-0.62 c -23.37,-13.28 -48.79,-26.68 -76.23,-34.75 -0.17,-0.05 -0.35,-0.07 -0.52,-0.07 -0.8,0 -1.53,0.54 -1.76,1.31 -0.28,0.96 0.27,1.98 1.23,2.28 26.92,8.41 51.84,22.1 74.76,35.64 l 6.52,3.89 c 21.41,12.74 43.53,25.92 62.05,42.43 3.89,3.41 7.71,7.26 11.69,11.73 l 0.82,0.92 -0.23,1.2 c -0.31,1.62 -0.14,3.18 0.47,4.52 29.08,63.41 28.67,115.29 -1.23,154.21 -7.22,9.4 -15.96,17.76 -25.97,24.84 -0.43,0.31 -0.87,0.6 -1.31,0.9 l -0.83,0.55 c -3.16,1.73 -6.05,3.16 -8.83,4.4 -16.42,7.39 -35.19,11.14 -55.78,11.14 -7.5,0 -15.24,-0.51 -22.99,-1.52 -24.81,-3.23 -50.84,-11.38 -77.32,-24.22 -26.97,-13.13 -48.11,-29.5 -62.84,-48.67 -1.43,-1.89 -3.61,-2.96 -5.98,-2.96 -1.65,0 -3.22,0.53 -4.53,1.53 -3.29,2.51 -3.93,7.22 -1.43,10.51 16.6,20.82 39.75,38.22 68.89,51.83 28.39,13.15 55.14,21.03 81.77,24.06 7.03,0.78 14.09,1.18 21,1.18 9.21,0 18.29,-0.7 27.01,-2.1 l 4.19,-0.67 -1.44,3.99 c -4.56,12.56 -9.28,32.67 -12.96,55.16 -3.58,21.9 -10.97,77.41 -7.17,142.17 l 4.57,40.78 -0.18,3.2 c 5.46,38.83 14.95,74.18 28.4,104.96 46.78,106.86 7.28,211.53 -11.88,251.57 l -1.21,2.48 -0.32,0.63 -0.77,0.72 c -0.33,0.21 -0.52,0.37 -0.66,0.54 -53.37,67.93 -115.15,104.03 -183.58,107.31 -3.55,0.18 -7.09,0.26 -10.6,0.26 -124.43,0 -227.94,-106.15 -232.29,-110.66 -0.47,-0.51 -1.12,-0.78 -1.81,-0.78 -0.49,0 -0.98,0.14 -1.39,0.41 -1.56,1.04 -159.48,104.46 -335.4,104.47 -129.03,0.01 -232.63,-55.6 -307.97,-165.27 -70.39,-102.47 -94.83,-205.76 -72.64,-306.99 42.66,-194.67 245.42,-317.49 247.46,-318.71 0.85,-0.51 1.32,-1.47 1.21,-2.45 l -17.31,-144.19 -0.12,-1.08 0.7,-0.83 90.97,-107.5 1.89,-2.23 1.91,2.21 c 37.79,43.75 104.31,85.42 131.16,101.31 l 2.21,1.31 -1.37,2.18 c -6.94,10.9 -12.59,22.25 -16.81,33.72 -11.18,30.05 -13.45,62.61 -6.38,91.7 7.64,31.78 25.44,59.29 50.13,77.45 30,22.4 64.33,28.13 87.83,28.99 2.56,0.11 5.11,0.16 7.64,0.16 26.2,0 54.14,-5.78 83.04,-17.2 24.61,-9.75 50.19,-23.54 80.51,-43.42 3.46,-2.27 4.43,-6.93 2.16,-10.39 -1.4,-2.12 -3.74,-3.39 -6.28,-3.39 -1.46,0 -2.88,0.43 -4.11,1.23 -29.32,19.7 -53.92,33.33 -77.5,42.96 -27.9,11.36 -54.72,17.11 -79.71,17.11 -1.78,0 -3.55,-0.03 -5.33,-0.09 -30.72,-0.77 -59.54,-9.88 -81.1,-25.65 -22.33,-16.01 -39.3,-41.68 -46.54,-70.42 -6.88,-26.94 -5.06,-57.34 5.1,-85.6 4.1,-11.53 9.75,-22.97 16.79,-33.98 l 0.47,-0.73 0.81,-0.29 c 0.43,-0.15 1.01,-0.46 1.38,-1.09 0.11,-0.22 0.28,-0.61 0.21,-1.4 l -0.07,-0.88 0.51,-0.73 c 8.25,-11.96 17.98,-22.9 28.92,-32.49 21.36,-19.04 47.44,-31 76.84,-43.58 27.41,-11.52 55.92,-21.32 84.72,-29.14 1.9,-0.51 3.03,-2.48 2.51,-4.37 -0.42,-1.55 -1.83,-2.63 -3.44,-2.63 -0.3,0 -0.6,0.04 -0.9,0.11 -29.21,7.6 -58.13,17.2 -85.97,28.54 -23.14,9.62 -45.58,19.42 -65.62,33.37 l -0.31,0.22 -0.38,0.12 c -20.65,6.34 -50.82,13.9 -77.29,13.9 -6.79,0 -13.1,-0.51 -18.75,-1.5 l -0.53,-0.1 -0.46,-0.31 c -36.98,-25.69 -64.82,-49.62 -82.74,-71.12 l -0.37,-0.45 -0.14,-0.57 c -0.15,-0.61 -0.39,-1.05 -0.73,-1.34 -0.12,-0.1 -0.38,-0.22 -0.62,-0.33 l -0.56,-0.25 -0.38,-0.48 c -6.82,-8.6 -11.98,-16.81 -15.33,-24.39 -25.97,-58.78 -40.54,-133.67 -42.11,-142.01 l -0.46,-2.44 2.44,-0.48 c 4.09,-0.8 8.17,-1.21 12.11,-1.21 21.97,0 39.24,12.28 59.24,26.51 l 6.09,4.31 c 9.14,6.44 18.05,13.5 26.67,20.33 17.14,13.57 34.85,27.58 54.92,37.31 22.64,10.96 48.41,16.52 76.59,16.52 27.66,0 56.66,-5.37 86.18,-15.94 43.22,-15.5 83.07,-39.9 121.62,-63.5 8.05,-4.94 16.06,-9.84 24.11,-14.67 45.98,-27.61 94.25,-53.39 139.75,-77.41 48.2,-25.48 108.2,-57.18 170.6,-79.84 l 6.87,-2.5 -0.1,0.16 1.29,-0.46 c 5.34,-1.89 10.68,-3.78 16.04,-5.49 50.33,-16.11 98.74,-24.27 143.88,-24.27 14.24,0 28.37,0.81 41.99,2.43 l 0.5,0.06 0.44,0.25 c 5.62,3.19 11.18,6.76 16.5,10.63 l 0.95,0.7 0.08,1.17 0.09,1.57 c 0.05,1.88 0.8,3.67 2.12,5.02 110.3,113.53 10.8,332.32 -37.1,421.11"
         style="fill:#e8ba81;fill-opacity:1;fill-rule:nonzero;stroke:none"
         id="path46" />
      <path
         d="m 1805.63,1040 -0.59,-12.4 -7.4,-161.299 v -0.692 l -6.9,-149.308 -1.7,-18.5 -0.6,-5.801 c -0.2,-1.801 -0.4,-4.102 -0.51,-5.898 l -0.59,-11.801 -2.4,-47.301 -4.7,-94.602 -9.61,-189.097 -18.89,-373.6994 -0.1,-2.3008 h -2.4 l -988.705,-0.1992 h -2.898 l 0.5,2.8984 39.004,235 c 24.297,152.398 40.695,240.609 50.496,293.301 10.5,56.5 13.301,71.699 7.004,75.898 l -0.801,0.5 -0.305,0.91 c -11.5,44.391 -35.699,429.091 75,769.691 111.805,343.8 507.905,398.3 511.895,398.8 0.91,0.1 1.81,0.4 2.61,0.8 0,0 25.2,-9.1 62.39,-35.51 44.21,-31.19 105.31,-86.89 161.21,-180.59 24.5,-40.8 47.9,-88.9 68.5,-145.3 0.29,-0.6 0.49,-1.2 0.69,-1.8 15.41,-42.4 29.21,-89.4 40.71,-141.7 0.6,-2.7 1.2,-5.5 1.79,-8.3 12.3,-57.5 21.71,-121.2 27.3,-191.7"
         style="fill:#21afec;fill-opacity:1;fill-rule:nonzero;stroke:none"
         id="path48" />
      <path
         d="m 3576.53,138.801 c 0.71,-27.102 2.41,-55.301 5,-84.301 -4.39,25.8984 -7.39,55 -5.19,81.109 0.1,1.09 0.19,2.09 0.19,3.192"
         style="fill:#fce19d;fill-opacity:1;fill-rule:nonzero;stroke:none"
         id="path50" />
      <path
         d="m 4239.43,-34.8008 h -3.7 l -249.2,2.5 -377.69,-0.0976 h -2.1 l -0.3,2.1992 c -28,198.1992 -17.41,358.5002 31.5,476.3982 0.29,0.801 0.4,1.5 0.5,2.301 l 0.99,12.699 0.51,6.5 0.6,7.602 0.7,8.699 0.4,4.699 1.19,15.403 0.91,11.296 20.69,258 0.21,2.903 c 0,0 0.1,0.199 0.19,0.699 0.21,0.5 0.4,1.301 0.8,2.301 10.71,35.09 107.2,370.399 -6.79,715.499 0,0 -29.2,124.9 -128.51,230.7 137.71,-40.1 276.01,-105 334.81,-208.9 73.2,-129.2 141.6,-487.21 207.69,-833.299 56.51,-295.903 109.9,-575.403 165.21,-714.6994 l 1.39,-3.4024"
         style="fill:#21afec;fill-opacity:1;fill-rule:nonzero;stroke:none"
         id="path52" />
      <path
         d="m 3219.15,3588.93 h -316.77 c 0,0 43.96,140.83 159.2,152.9 0,0 144.88,-30.73 158.06,-95.49 0,0 22.08,-39.09 -0.49,-57.41"
         style="fill:#c16a38;fill-opacity:1;fill-rule:nonzero;stroke:none"
         id="path54" />
      <path
         d="m 2414.25,3575.76 h 316.77 c 0,0 -21.75,131.32 -167.36,149.61 0,0 -136.72,-27.45 -149.89,-92.2 0,0 -22.09,-39.09 0.48,-57.41"
         style="fill:#c16a38;fill-opacity:1;fill-rule:nonzero;stroke:none"
         id="path56" />
      <path
         d="m 3084.08,3465.24 c 66.98,0 121.28,51.11 121.28,114.15 H 2962.8 c 0,-63.04 54.3,-114.15 121.28,-114.15"
         style="fill:#ffffff;fill-opacity:1;fill-rule:nonzero;stroke:none"
         id="path58" />
      <path
         d="m 2573.72,3465.24 c 66.98,0 121.28,51.11 121.28,114.15 h -242.56 c 0,-63.04 54.3,-114.15 121.28,-114.15"
         style="fill:#ffffff;fill-opacity:1;fill-rule:nonzero;stroke:none"
         id="path60" />
      <path
         d="m 1745.27,1981.13 c 0,0 93.13,-16.93 90.59,-17.78 -2.53,-0.85 -44.02,-54.19 -44.02,-54.19 l -46.57,71.97"
         style="fill:#080a0b;fill-opacity:1;fill-rule:nonzero;stroke:none"
         id="path62" />
      <path
         d="m 2182.44,563.242 -408.29,-246.953 24.14,410.492 c 0,0 117.44,-124.031 384.15,-163.539"
         style="fill:#080a0b;fill-opacity:1;fill-rule:nonzero;stroke:none"
         id="path64" />
      <path
         d="m 3639.27,525.199 16.09,254.621 c 0,0 -123.94,-108.82 -200.4,-119.668 0,0 184.31,-48.621 184.31,-134.953"
         style="fill:#080a0b;fill-opacity:1;fill-rule:nonzero;stroke:none"
         id="path66" />
      <path
         d="M 3986.84,-39.8008 749.023,-40.418 790,206.172 c 49.758,312.848 67.32,359.68 58.535,362.609 -8.777,2.93 -46.824,409.758 73.176,778.859 114.529,352.27 518.049,403.89 518.049,403.89 l 242.92,128.78 c -20.48,29.27 61.47,90.73 61.47,90.73 0,0 376.09,-484.38 919.02,-493.16 0,0 364.39,-48.3 427.32,295.61 l -40.98,96.58 114.15,-27.8 11.7,-46.83 c 0,0 559.03,-32.2 696.59,-275.13 137.56,-242.92 256.1,-1275.931 379.03,-1562.7514 z"
         style="fill:none;stroke:#080a0b;stroke-width:20;stroke-linecap:round;stroke-linejoin:round;stroke-miterlimit:10;stroke-dasharray:none;stroke-opacity:1"
         id="path68" />
      <path
         d="m 3600.19,-38.3789 c -19.76,136.0898 -32.63,333.8199 31.03,487.4689 0,0 21.95,280.98 26.34,329.281 0,0 137.23,353.669 -5.46,713.669"
         style="fill:none;stroke:#080a0b;stroke-width:20;stroke-linecap:round;stroke-linejoin:round;stroke-miterlimit:10;stroke-dasharray:none;stroke-opacity:1"
         id="path70" />
      <path
         d="m 3177.8,1795.11 c 4.15,-40.91 1,-81.48 -7.13,-121.28 -8.26,-39.72 -22.44,-78.33 -42.6,-113.69 -20.24,-35.32 -46.45,-67.24 -77.26,-93.85 -30.72,-26.74 -65.69,-48.3 -102.58,-65.14 -74.06,-33.69 -154.8,-48.94 -235.06,-54.96 -80.49,-6.03 -161.88,-0.78 -241.05,15.17 -39.62,7.85 -78.63,18.59 -116.9,31.46 -38.36,12.82 -75.48,28.6 -112.23,44.81 -73.51,32.66 -145.03,69.97 -213.54,112.34 -68.42,42.45 -133.87,90.06 -194.06,143.92 -60.08,53.88 -114.95,114.05 -160.96,180.78 -3.14,4.55 -1.99,10.78 2.56,13.9 4.54,3.15 10.77,2 13.9,-2.54 l 0.05,-0.07 c 89.57,-131.17 213.16,-236.63 347.81,-321.07 67.54,-42.24 138.2,-79.58 210.92,-112.33 36.44,-16.28 73.07,-32.06 110.64,-44.83 37.58,-12.84 75.91,-23.61 114.83,-31.52 77.82,-16.07 157.73,-21.65 237.06,-16.1 79.16,5.51 158.47,20.16 230.78,52.63 36.01,16.22 70.03,36.98 99.9,62.71 29.95,25.61 55.43,56.33 75.21,90.42 19.69,34.15 33.67,71.56 41.91,110.21 8.13,38.53 11.35,78.8 7.6,117.64 l -0.04,0.37 c -0.27,2.83 1.81,5.34 4.63,5.62 2.83,0.27 5.34,-1.77 5.61,-4.6"
         style="fill:#080a0b;fill-opacity:1;fill-rule:nonzero;stroke:none"
         id="path72" />
      <path
         d="m 3087.38,1740.05 c -19.78,-16.3 -41,-30.54 -63.71,-42.53 -22.72,-11.74 -47.28,-21.29 -73.87,-23.06 -2.75,-0.18 -5.13,1.91 -5.32,4.66 -0.17,2.76 1.91,5.14 4.66,5.32 0.05,0.01 0.1,0.01 0.15,0.01 l 0.17,0.01 c 24.28,0.8 48.33,9.07 70.81,19.83 22.47,10.94 44,24.41 63.81,39.71 l 0.09,0.06 c 1.12,0.88 2.74,0.67 3.61,-0.46 0.85,-1.1 0.67,-2.67 -0.4,-3.55"
         style="fill:#080a0b;fill-opacity:1;fill-rule:nonzero;stroke:none"
         id="path74" />
      <path
         d="m 1962.11,1762.03 c 1.89,-0.17 4.04,-0.51 5.86,-0.99 l 4.31,-1.24 8.6,-2.5 17.14,-5.03 34.28,-9.97 c 22.88,-6.58 45.8,-12.97 68.78,-19.16 45.96,-12.36 92.12,-23.92 138.5,-34.51 46.43,-10.38 93.05,-19.79 139.91,-27.71 46.92,-7.58 94.05,-13.69 141.34,-17.08 h 0.07 c 2.75,-0.21 4.82,-2.59 4.63,-5.34 -0.2,-2.77 -2.59,-4.84 -5.34,-4.64 l -0.04,0.01 c -47.72,3.82 -95.07,10.38 -142.13,18.39 -47,8.35 -93.69,18.19 -140.14,28.99 -46.41,11.01 -92.56,22.99 -138.49,35.76 -22.95,6.39 -45.86,12.98 -68.7,19.77 l -34.23,10.26 -17.09,5.19 -8.54,2.55 -4.26,1.26 c -1.07,0.25 -1.83,0.57 -2.83,1.1 l -2.66,1.4 c -0.9,0.47 -1.25,1.6 -0.77,2.5 0.36,0.69 1.08,1.05 1.8,0.99"
         style="fill:#080a0b;fill-opacity:1;fill-rule:nonzero;stroke:none"
         id="path76" />
      <path
         d="m 2741.85,1609.91 c 12.84,-12.55 26.73,-24.27 41.29,-34.79 14.57,-10.46 30.13,-19.86 46.76,-25.41 8.27,-2.69 16.94,-4.25 25.09,-3.17 8.14,1.02 15.4,5.05 20.58,11.34 5.12,6.32 8.86,14.13 10.94,22.58 1.38,4.07 1.83,8.53 2.8,12.77 l 1.57,13.15 0.04,0.39 c 0.33,2.74 2.81,4.69 5.55,4.36 2.75,-0.32 4.7,-2.81 4.38,-5.54 -0.01,-0.03 -0.01,-0.09 -0.02,-0.12 l -1.96,-13.88 c -1.15,-4.59 -1.73,-9.24 -3.34,-13.76 -2.49,-9.12 -6.85,-18.12 -13.32,-25.71 -6.5,-7.64 -16.31,-12.76 -26.25,-13.69 -9.97,-1.08 -19.6,1.02 -28.47,4.1 -17.76,6.4 -33.46,16.45 -48.11,27.46 -14.65,11.11 -28.36,23.19 -41.23,36.34 -0.99,1.01 -0.97,2.64 0.04,3.64 1,0.98 2.6,0.98 3.6,0 l 0.06,-0.06"
         style="fill:#080a0b;fill-opacity:1;fill-rule:nonzero;stroke:none"
         id="path78" />
      <path
         d="m 1749.25,-34.8398 19.13,378.2308 9.57,189.129 4.79,94.57 2.39,47.281 0.6,11.828 c 0.04,1.793 0.27,4.223 0.5,6.09 l 0.61,5.82 2.13,23.411 c 9.75,125.222 9,251.601 -4.87,376.35 -6.98,62.35 -17.76,124.28 -33.51,184.83 -7.83,30.29 -17.42,60.04 -28.05,89.37 -11.01,29.19 -23.7,57.67 -38.02,85.25 l -0.32,0.69 -0.07,0.15 c -9.79,22.61 -21.69,45.19 -34.33,66.86 -12.74,21.7 -26.51,42.81 -41.49,62.99 -29.88,40.34 -64.39,77.41 -104.29,107.21 l -0.04,0.03 c -4.42,3.31 -5.33,9.57 -2.03,14.01 3.31,4.42 9.57,5.33 14,2.02 l 0.03,-0.02 c 41.81,-31.46 77.38,-70.04 108.03,-111.67 15.36,-20.84 29.43,-42.56 42.44,-64.87 12.96,-22.44 24.86,-45.09 35.27,-69.33 l -0.39,0.84 c 14.66,-28.48 27.57,-57.75 38.72,-87.66 10.77,-30.03 20.42,-60.43 28.27,-91.27 15.8,-61.65 26.47,-124.42 33.3,-187.48 13.54,-126.199 13.82,-253.359 3.53,-379.66 l -2.25,-23.711 -0.64,-5.937 c -0.26,-2.051 -0.41,-3.551 -0.5,-5.711 l -0.69,-11.801 -2.77,-47.219 -5.54,-94.449 -11.08,-188.902 -22.15,-377.8402 c -0.16,-2.8281 -2.6,-5 -5.44,-4.8281 -2.83,0.1602 -4.98,2.5703 -4.84,5.3985"
         style="fill:#080a0b;fill-opacity:1;fill-rule:nonzero;stroke:none"
         id="path80" />
      <path
         d="m 1845.17,688.531 c 130.09,-82.972 283.44,-128.812 437.49,-130.902 154.05,-2.078 308.36,39.59 440.25,118.781 2.36,1.41 5.44,0.649 6.86,-1.719 1.42,-2.371 0.65,-5.441 -1.71,-6.859 l -0.02,-0.023 c -133.94,-79.45 -290.03,-120.661 -445.5,-117.75 -155.47,2.921 -309.67,49.961 -440.15,134.14 -1.19,0.762 -1.54,2.36 -0.76,3.551 0.76,1.199 2.35,1.539 3.54,0.781"
         style="fill:#080a0b;fill-opacity:1;fill-rule:nonzero;stroke:none"
         id="path82" />
      <path
         d="m 3159.64,715.789 c 41.54,-17.707 83.27,-35.168 126.58,-47.277 43.16,-12.102 88.37,-18.571 132.7,-12.91 44.34,5.457 86.42,23 124.91,45.75 38.65,22.777 74.26,50.507 109.54,78.648 2.16,1.719 5.3,1.371 7.02,-0.789 1.73,-2.16 1.38,-5.301 -0.78,-7.02 l -0.04,-0.031 c -35.61,-27.879 -71.8,-55.578 -111.32,-78.41 -39.34,-22.77 -82.68,-40.449 -128.43,-45.668 -45.7,-5.41 -91.78,1.68 -135.33,14.297 -43.73,12.66 -85.49,30.59 -126.89,48.68 -1.3,0.57 -1.9,2.089 -1.33,3.39 0.57,1.301 2.07,1.903 3.37,1.34"
         style="fill:#080a0b;fill-opacity:1;fill-rule:nonzero;stroke:none"
         id="path84" />
      <path
         d="m 1771.16,158.32 65.92,-61.3708 c 1.48,-1.3789 2.22,-3.2578 2.21,-5.1289 l -0.01,-0.3594 -1.73,-129.8515 c -0.07,-5.5274 -4.61,-9.9375 -10.13,-9.8672 -5.52,0.0781 -9.94,4.6172 -9.87,10.1289 0,0.1289 0.01,0.3008 0.02,0.418 l 7.05,129.6601 2.21,-5.4883 -62.87,64.5001 c -1.98,2.031 -1.94,5.289 0.1,7.269 1.97,1.93 5.1,1.95 7.1,0.09"
         style="fill:#080a0b;fill-opacity:1;fill-rule:nonzero;stroke:none"
         id="path86" />
      <path
         d="m 1850.02,3539.26 c 8.6,39.7 31.18,75.12 57.8,105.78 3.16,3.64 6.56,7.64 6.76,12.46 0.12,2.87 -0.94,5.65 -2,8.33 -29.72,74.89 -77.09,142.72 -137.17,196.42 65.48,-0.53 130.16,-30.73 172.6,-80.61 13.55,-15.93 24.99,-33.79 40.46,-47.89 16.38,-14.92 37.09,-25.45 50.02,-43.45 13.54,-18.83 16.51,-44.58 8.31,-66.28 -8.19,-21.69 -27.08,-38.87 -49.24,-45.7 -12.44,-3.84 -25.81,-4.64 -37.69,-9.94 -20.93,-9.34 -28.59,-42.99 -32.03,-65.66 -3.44,-22.66 0.51,-36.47 6.75,-58.52 1.42,-5 -0.94,-10.23 -4.5,-14 -1.59,-1.7 -4.8,-1.31 -7,-2.05 -12.84,-4.31 -31.85,-10.84 -45.1,-4.49 -9.67,4.64 -15.61,18.14 -19.82,27.36 -12.49,27.35 -14.47,59.05 -8.15,88.24"
         style="fill:#080a0b;fill-opacity:1;fill-rule:nonzero;stroke:none"
         id="path88" />
      <path
         d="m 2060.45,3294.48 c 0,0 -27.37,-258.84 -163.01,-230.22 l -4.05,117.99 c 0,0 118.53,-27.14 167.06,112.23"
         style="fill:#080a0b;fill-opacity:1;fill-rule:nonzero;stroke:none"
         id="path90" />
      <path
         d="m 2923.55,2579.86 c 3.6,0 147.31,-95.56 291.01,17.97 l -291.01,-17.97"
         style="fill:#080a0b;fill-opacity:1;fill-rule:nonzero;stroke:none"
         id="path92" />
      <path
         d="m 2736.06,2511 c 2.66,-1.78 200.76,-134.43 326.34,-135.32 0,0 90.21,20.35 124.69,112.32 0,0 -60.16,-53.49 -130,-50.41 -75.71,3.34 -175.99,35.38 -175.99,35.38 L 2736.06,2511"
         style="fill:#080a0b;fill-opacity:1;fill-rule:nonzero;stroke:none"
         id="path94" />
      <path
         d="m 3048.05,1867.15 c 0,0 -80.49,-144.88 -288.29,-26.35 -207.81,118.54 -449.27,209.27 -557.56,399.51 -108.3,190.25 -139.03,367.32 -139.03,367.32 0,0 74.48,-116.89 212.04,-178.35 0,0 61.62,-158.24 184.55,-234.33 0,0 181.46,-89.27 361.46,-108.29 l 124.39,-14.64 95.72,18.76 c 0,0 -16.69,-169.49 6.72,-223.63"
         style="fill:#080a0b;fill-opacity:1;fill-rule:nonzero;stroke:none"
         id="path96" />
      <path
         d="m 2633.5,3041.7 c 0,0 -94.9,38.82 -140.19,19.41 l 63.98,43.13 76.21,-62.54"
         style="fill:#080a0b;fill-opacity:1;fill-rule:nonzero;stroke:none"
         id="path98" />
      <path
         d="m 3249.56,3076.93 c 0,0 49.61,23.72 97.05,3.59 l -32.35,48.88 -64.7,-52.47"
         style="fill:#080a0b;fill-opacity:1;fill-rule:nonzero;stroke:none"
         id="path100" />
      <path
         d="m 3378.74,2659.6 c 0,0 -2.21,-79 -54.8,-105.4 l -28.61,-11 c -14.39,-113.9 -25.59,-224.7 -91.7,-323 -6.59,-9.7 -13.49,-19.2 -20.8,-28.4 -17.69,-22.41 -37.6,-43.3 -60.39,-60.7 -94,-71.71 -206.6,-57.1 -315.2,-39 -107.3,17.9 -218.3,42.9 -315.5,93.3 -30.2,15.7 -59.7,34.5 -83.2,59.3 -116.3,122.9 -136.1,177.8 -136.1,177.8 0,0 -151.5,68.1 -274.4,292 0,0 -83.4,0 -107.5,-52.7 0,0 -28.6,83.4 8.7,140.5 0,0 -74.3,-4.4 -100.8,-39.3 4.3,7.6 128.8,229.2 96.4,416.8 0,0 -226.1,19.8 -333.6,351.2 0,0 -186.6,480.8 291.89,441.3 0,0 -6.59,107.5 -17.5,142.6 l 533.41,261.3 c 0,0 417.09,129.5 739.7,24.1 0,0 -158.01,-65.8 -182.21,-122.9 0,0 134.01,-22 206.41,-68.1 0,0 -96.6,-24.1 -116.41,-52.6 0,0 86.11,-55.3 152.01,-110.6 35,-29.5 64.4,-59.1 72,-80.4 0,0 4.1,-6.7 9.9,-18.8 20.1,-42 59.79,-148.6 12,-257.8 -42.11,-96.3 -36.81,-215.2 -25.11,-286.9 5.4,-33 12.21,-55.9 16.3,-62.1 0,0 15.91,-5 34.01,-18.1 9.2,-6.5 19,-15.2 27.59,-26.4 24.2,-31.5 38.51,-82.5 2.1,-161.9 0,0 208.51,-322.7 61.41,-474.1 z"
         style="fill:none;stroke:#080a0b;stroke-width:20;stroke-linecap:round;stroke-linejoin:round;stroke-miterlimit:10;stroke-dasharray:none;stroke-opacity:1"
         id="path102" />
      <path
         d="m 2420.24,2995.44 -96.58,114.14 17.56,146.35 c 0,0 -431.33,257.01 -175.61,629.27 231.22,336.58 646.83,61.46 646.83,61.46 0,0 237.07,248.78 430.25,2.92"
         style="fill:none;stroke:#080a0b;stroke-width:10;stroke-linecap:round;stroke-linejoin:round;stroke-miterlimit:10;stroke-dasharray:none;stroke-opacity:1"
         id="path104" />
      <path
         d="m 2563.66,3106.66 c 0,0 -133.17,-74.64 -160.98,-137.56 -27.8,-62.93 -42.44,-143.42 -42.44,-143.42"
         style="fill:none;stroke:#080a0b;stroke-width:10;stroke-linecap:round;stroke-linejoin:round;stroke-miterlimit:10;stroke-dasharray:none;stroke-opacity:1"
         id="path106" />
      <path
         d="m 2754.53,2990.36 c -29.34,7.62 -58.2,17.18 -86.3,28.63 -27.74,11.54 -56.52,23.91 -80.39,44.61 -23.67,20.33 -42.4,46.58 -53.25,76.07 -10.92,29.34 -13.99,62.14 -6.46,93.15 7.4,30.78 25.02,59.71 51.07,78.87 25.88,19.32 57.87,28.33 89.23,29.48 31.63,1.37 62.95,-5.87 91.69,-17.21 28.87,-11.44 55.53,-26.99 80.95,-43.66 4.62,-3.03 5.91,-9.23 2.89,-13.85 -3.03,-4.62 -9.23,-5.91 -13.85,-2.88 -0.01,0.01 -0.09,0.06 -0.11,0.07 -24.6,16.54 -50.01,31.66 -76.96,42.66 -26.92,10.96 -55.41,17.79 -84.02,16.85 -28.45,-0.72 -57.07,-8.62 -79.71,-25.18 -22.73,-16.3 -38.68,-41.57 -45.59,-69.01 -7.01,-27.46 -4.68,-57.15 5.04,-84.14 9.61,-27.07 26.61,-51.53 48.3,-70.56 21.57,-19.22 48.78,-31.44 76.18,-43.16 27.43,-11.53 55.66,-21.23 84.4,-29.03 3.22,-0.87 5.13,-4.2 4.26,-7.43 -0.86,-3.21 -4.17,-5.11 -7.37,-4.28"
         style="fill:#080a0b;fill-opacity:1;fill-rule:nonzero;stroke:none"
         id="path108" />
      <path
         d="m 3039.63,3269.23 c 18.71,23.48 43.69,40.27 69.68,52.41 26.02,12.05 53.64,20.98 82.55,24.27 28.73,3.22 59.01,0.53 86.02,-12.14 26.65,-12.44 49.8,-33.67 61.78,-61.31 5.94,-13.74 8.34,-29.2 8.12,-43.48 -0.2,-14.24 -0.29,-27.98 -2,-42.52 -1.59,-14.38 -6.13,-29.13 -13.78,-41.75 -7.4,-12.83 -17.54,-23.54 -28.29,-33.01 -21.83,-18.77 -46.66,-32.26 -70.74,-46.13 -24.25,-13.78 -49.46,-26.95 -76.78,-34.98 -2.29,-0.68 -4.71,0.63 -5.38,2.93 -0.67,2.27 0.63,4.66 2.88,5.37 26.08,8.15 50.4,21.33 74.23,35.41 23.84,14.24 48.02,28.04 68.18,46.02 20.26,17.82 34.93,41 36.85,67.64 1.35,13.14 1.25,27.3 1.21,40.87 -0.08,13.54 -2.38,26.07 -7.64,37.89 -10.63,23.52 -31.37,42.15 -55.18,52.72 -23.78,10.71 -51.15,12.85 -77.43,9.43 -26.44,-3.44 -52.35,-12.25 -76.57,-23.99 -24.1,-11.74 -46.18,-27.44 -61.94,-47.95 -3.35,-4.39 -9.62,-5.24 -14.01,-1.89 -4.4,3.35 -5.25,9.63 -1.9,14.02 0.03,0.03 0.11,0.14 0.14,0.17"
         style="fill:#080a0b;fill-opacity:1;fill-rule:nonzero;stroke:none"
         id="path110" />
      <path
         d="m 1533.19,3793.96 c 69.83,57.58 165.25,79.79 255.04,68.41 50.94,-6.46 101.82,-23.86 140.23,-57.94 33.62,-29.83 56.39,-71.1 92.85,-97.38 3.27,-2.35 6.82,-4.64 10.83,-4.95 6.44,-0.49 12.04,4.18 16.48,8.89 22.4,23.74 35.31,56.19 35.36,88.83 0.05,32.64 -12.77,65.13 -35.1,88.94 -14.14,15.09 -31.71,26.59 -49.97,36.29 -46.85,24.89 -98.89,38.63 -151.2,47.46"
         style="fill:none;stroke:#080a0b;stroke-width:10;stroke-linecap:round;stroke-linejoin:round;stroke-miterlimit:10;stroke-dasharray:none;stroke-opacity:1"
         id="path112" />
      <path
         d="m 1886.12,3184.63 c 27.84,-1.35 56.56,-2.57 82.72,7.05 36.97,13.61 63.29,47.03 80.69,82.37 19.14,38.9 29.82,81.93 31.09,125.27"
         style="fill:none;stroke:#080a0b;stroke-width:10;stroke-linecap:round;stroke-linejoin:round;stroke-miterlimit:10;stroke-dasharray:none;stroke-opacity:1"
         id="path114" />
      <path
         d="m 1812.46,3488.96 c 4.29,-19.75 16.16,-37.69 32.44,-49.54 16.28,-11.86 37.08,-17.07 57.04,-14.97 4.98,0.55 9.92,1.53 14.71,2.97 4.79,1.33 9.25,3.33 12.41,6.3 3.18,3.02 3.95,6.51 2.32,10.73 -1.63,4.08 -4.53,9.27 -6.14,14.44 -6.87,20.98 -4.31,43.58 2.73,63.67 3.56,10.12 8.29,19.81 14.15,28.83 3.01,4.48 6.04,8.85 9.88,12.97 3.72,4.09 8.7,7.81 14.06,9.92 10.8,4.13 20.89,4.97 30.5,8.25 9.61,2.98 18.78,7.1 26.3,13.24 15.17,12.19 24.45,31.64 24.29,51.06 0,19.49 -8.45,39.07 -23.11,51.66 -2.1,1.8 -2.34,4.96 -0.54,7.05 1.8,2.1 4.96,2.34 7.05,0.54 0.01,-0.01 0.04,-0.04 0.05,-0.04 16.9,-14.87 26.12,-37.12 25.94,-59.25 -0.09,-22.33 -10.75,-44.1 -28.21,-57.89 -8.75,-6.99 -19.03,-11.41 -29.29,-14.49 -10.2,-3.3 -21.17,-4.36 -29.89,-7.7 -8.62,-3.15 -14.76,-11.31 -20.45,-19.66 -5.58,-8.4 -10.15,-17.51 -13.59,-27.02 -6.86,-18.9 -9.28,-40.01 -3.25,-58.96 1.45,-4.82 3.73,-8.77 5.95,-14.35 0.99,-2.76 1.59,-6.2 0.8,-9.55 -0.77,-3.34 -2.71,-6.18 -4.95,-8.28 -4.52,-4.15 -9.98,-6.29 -15.17,-7.72 -5.21,-1.51 -10.54,-2.52 -15.92,-3.05 -21.5,-2.05 -43.7,3.75 -61.07,16.66 -17.31,12.87 -29.7,32.03 -34.08,53.12 -0.29,1.39 0.6,2.75 1.99,3.04 1.39,0.29 2.74,-0.6 3.05,-1.98"
         style="fill:#080a0b;fill-opacity:1;fill-rule:nonzero;stroke:none"
         id="path116" />
      <path
         d="m 2364.41,2824.68 c -3.82,-21.99 0.52,-46.23 9.72,-67.27 9.29,-21.31 23.81,-40.15 40.9,-56.11 34.53,-31.98 78.12,-52.98 122.7,-68.54 44.86,-15.47 91.58,-25.47 138.63,-32.48 47.08,-7.02 94.63,-11.06 142.25,-13.19 47.63,-2.22 95.36,-2.36 143.06,-1.32 23.87,0.47 47.66,1.38 71.59,2.54 24.05,1.09 47.61,1.51 71.44,3.45 47.48,3.49 94.87,9.27 141.31,19.23 23.2,4.97 46.09,11.26 68.26,19.31 21.99,8.29 43.48,18.5 61.3,33.11 l 0.08,0.08 c 2.14,1.75 5.3,1.44 7.05,-0.69 1.74,-2.14 1.44,-5.29 -0.7,-7.04 l -0.01,-0.01 c -19.29,-15.77 -41.65,-26.22 -64.28,-34.74 -22.78,-8.25 -46.1,-14.6 -69.63,-19.63 -47.09,-10.03 -94.85,-15.78 -142.69,-19.24 -23.84,-1.91 -48.1,-2.33 -71.8,-3.38 -23.8,-1.13 -47.79,-2.01 -71.71,-2.46 -47.89,-0.98 -95.82,-0.77 -143.7,1.52 -47.87,2.2 -95.7,6.32 -143.18,13.46 -47.44,7.13 -94.63,17.27 -140.19,33.05 -45.28,15.89 -89.85,37.29 -125.75,70.58 -17.76,16.63 -33.04,36.43 -42.87,59.05 -9.67,22.63 -14.51,47.47 -10.11,72.72 0.4,2.32 2.62,3.88 4.95,3.48 2.32,-0.41 3.88,-2.62 3.47,-4.95 l -0.09,-0.53"
         style="fill:#080a0b;fill-opacity:1;fill-rule:nonzero;stroke:none"
         id="path118" />
      <path
         d="m 2365.26,2784.33 c 1.46,-20.72 10.84,-42.05 22.4,-60.51 11.58,-18.82 26.25,-35.73 42.24,-51.16 32.11,-30.9 69.83,-55.75 109.19,-76.97 79.04,-42.44 165.04,-70.78 251.88,-93.55 l 32.69,-8.21 32.98,-7.47 c 11.04,-2.32 21.94,-5.16 32.8,-8.22 l 32.65,-8.86 65.3,-17.71 c 11.02,-2.76 21.64,-6.46 32.33,-7.94 10.84,-1.67 21.88,-2.35 32.87,-2.21 21.98,0.34 43.91,4.44 64.13,12.76 10.17,4.27 19.37,9.49 29.11,15.54 l 29.03,17.45 c 38.91,22.96 78.23,45.05 118.4,65.91 2.45,1.27 5.47,0.32 6.75,-2.14 1.27,-2.45 0.31,-5.46 -2.14,-6.74 h -0.01 l -0.06,-0.03 c -39.86,-20.63 -79.19,-42.65 -117.94,-65.46 l -28.94,-17.34 c -9.4,-5.84 -19.85,-11.78 -30.48,-16.19 -21.5,-8.82 -44.66,-13.08 -67.71,-13.41 -11.53,-0.13 -23.06,0.6 -34.5,2.37 -11.67,1.69 -22.46,5.48 -33.28,8.19 l -65.17,17.78 -32.59,8.88 c -10.83,3.07 -21.72,5.93 -32.76,8.25 l -32.95,7.51 -32.85,8.3 c -87.27,23.02 -173.82,51.62 -253.79,94.69 -39.83,21.55 -78.13,46.81 -111.02,78.52 -16.38,15.86 -31.47,33.29 -43.52,52.9 -11.98,19.63 -21.9,40.74 -23.61,65.19 -0.16,2.36 1.61,4.4 3.96,4.56 2.35,0.16 4.39,-1.61 4.56,-3.96 l 0.05,-0.72"
         style="fill:#080a0b;fill-opacity:1;fill-rule:nonzero;stroke:none"
         id="path120" />
      <path
         d="m 3046.34,2358.08 c -13.06,-61.19 -7.55,-125.98 15.34,-183.69 1.02,-2.55 -0.23,-5.46 -2.8,-6.48 -2.57,-1.03 -5.47,0.23 -6.5,2.8 -0.01,0.03 -0.03,0.09 -0.05,0.12 -22.09,60.17 -25.87,126.54 -11.01,188.39 0.33,1.39 1.72,2.24 3.1,1.9 1.36,-0.33 2.21,-1.69 1.92,-3.04"
         style="fill:#080a0b;fill-opacity:1;fill-rule:nonzero;stroke:none"
         id="path122" />
      <path
         d="m 2975.14,3010.55 c 1.49,-15.85 12.22,-29.58 24.89,-39.39 12.84,-10.06 28.07,-17.09 42.27,-26.37 28.57,-18.2 53.12,-42.5 72.32,-70.43 19.05,-28.04 32.62,-59.97 38.96,-93.39 6.45,-33.39 6.16,-68.08 -0.89,-101.44 -0.58,-2.7 -3.23,-4.43 -5.93,-3.86 -2.71,0.58 -4.44,3.23 -3.86,5.93 0,0.01 0.01,0.05 0.01,0.06 7.17,31.95 7.86,65.4 2.04,97.7 -5.74,32.32 -18.45,63.32 -36.61,90.77 -18.31,27.32 -41.89,51.27 -69.5,69.33 -13.63,9.18 -28.95,16.44 -42.38,27.18 -13.25,10.56 -24.92,25.46 -26.45,43.48 -0.12,1.41 0.93,2.66 2.34,2.78 1.41,0.12 2.66,-0.95 2.79,-2.35"
         style="fill:#080a0b;fill-opacity:1;fill-rule:nonzero;stroke:none"
         id="path124" />
      <path
         d="m 3234.68,2834.96 c 7.33,-8.37 12.81,-18.24 16.63,-28.57 3.88,-10.34 6.32,-21.07 8.17,-31.77 3.57,-21.44 5.68,-42.7 8.54,-64.06 0.37,-2.74 -1.56,-5.26 -4.29,-5.63 -2.74,-0.36 -5.25,1.56 -5.62,4.3 -0.01,0.05 -0.02,0.11 -0.02,0.16 l -0.02,0.19 c -2.04,21.28 -3.38,42.84 -6.08,63.89 -2.81,20.83 -7.95,41.95 -21.23,58.14 -0.91,1.1 -0.76,2.72 0.33,3.63 1.07,0.89 2.66,0.75 3.59,-0.28"
         style="fill:#080a0b;fill-opacity:1;fill-rule:nonzero;stroke:none"
         id="path126" />
      <path
         d="m 3337.2,2834.72 c 9.92,-13.61 15.24,-30.03 17.92,-46.35 2.7,-16.4 3.06,-32.92 3.28,-49.18 0.04,-2.76 -2.18,-5.03 -4.94,-5.07 -2.76,-0.03 -5.03,2.17 -5.06,4.94 -0.01,0.08 0,0.17 0,0.25 0.59,16.17 1.02,32.22 -0.78,48 -1.79,15.72 -6.02,31.28 -14.66,44.49 -0.78,1.19 -0.45,2.79 0.74,3.57 1.15,0.75 2.7,0.45 3.5,-0.65"
         style="fill:#080a0b;fill-opacity:1;fill-rule:nonzero;stroke:none"
         id="path128" />
      <path
         d="m 1865.29,3316.15 c 14.86,-13.08 33.82,-21.19 53.44,-23.55 19.56,-2.22 39.93,0.47 57.47,9.24 17.63,8.52 31.8,22.98 42.46,39.65 10.85,16.63 18.8,35.2 26.72,53.88 1.07,2.54 4,3.74 6.55,2.67 2.55,-1.07 3.74,-4.01 2.67,-6.55 -0.01,-0.03 -0.03,-0.08 -0.04,-0.11 -8.33,-18.57 -16.83,-37.47 -28.59,-54.76 -11.52,-17.27 -27.17,-32.75 -46.52,-41.62 -19.17,-9.08 -40.89,-11.47 -61.56,-8.71 -20.72,2.91 -40.62,11.89 -56.07,26.07 -1.05,0.96 -1.12,2.59 -0.16,3.64 0.95,1.03 2.54,1.11 3.59,0.19 l 0.04,-0.04"
         style="fill:#080a0b;fill-opacity:1;fill-rule:nonzero;stroke:none"
         id="path130" />
      <path
         d="m 1626.22,3494.12 c 41.96,-127.57 146.44,-232.37 273.02,-274.76 2.62,-0.87 4.03,-3.71 3.16,-6.33 -0.88,-2.62 -3.71,-4.03 -6.33,-3.16 -0.01,0.01 -0.05,0.02 -0.06,0.03 -129.17,45.04 -233.72,152.97 -274.69,282.64 -0.43,1.36 0.33,2.81 1.68,3.23 1.35,0.43 2.78,-0.31 3.22,-1.65"
         style="fill:#080a0b;fill-opacity:1;fill-rule:nonzero;stroke:none"
         id="path132" />
      <path
         d="m 2820.25,3819.35 c 0.3,-16.33 2.64,-32.61 6.94,-48.34 2.18,-7.86 4.8,-15.59 7.93,-23.12 3.11,-7.56 6.7,-15.28 8.62,-23.81 1.9,-8.56 1.96,-17.11 1.95,-25.43 -0.06,-8.37 -0.48,-16.71 -1.04,-25.01 -1.13,-16.6 -2.92,-33.05 -3.78,-49.44 -3.44,-65.5 9.1,-131.71 36.23,-191.22 1.14,-2.51 0.04,-5.48 -2.47,-6.62 -2.52,-1.15 -5.48,-0.04 -6.63,2.47 0,0.01 -0.02,0.05 -0.02,0.06 -27.06,61.32 -38.99,129.07 -34.67,195.75 1.07,16.66 3.07,33.11 4.4,49.52 1.05,16.26 2.64,33.13 -0.18,48.56 -1.62,7.68 -4.93,15.14 -8.03,22.89 -3.12,7.79 -5.73,15.8 -7.87,23.91 -4.23,16.25 -6.43,33.01 -6.53,49.78 0,1.42 1.14,2.58 2.56,2.58 1.41,0.01 2.56,-1.12 2.59,-2.53"
         style="fill:#080a0b;fill-opacity:1;fill-rule:nonzero;stroke:none"
         id="path134" />
      <path
         d="m 2989.85,3320.23 c 8.03,10.91 18.19,20.19 29.46,27.56 11.21,7.49 23.41,13.24 35.79,18.21 12.42,4.94 25.03,9.04 37.7,12.95 12.67,3.81 26.57,7.32 41.08,4.85 2.72,-0.47 4.55,-3.05 4.09,-5.77 -0.47,-2.72 -3.05,-4.55 -5.77,-4.09 -0.05,0.01 -0.14,0.02 -0.19,0.03 -11.66,2.42 -24.31,-0.08 -36.79,-3.47 -12.61,-3.47 -25.2,-7.15 -37.42,-11.57 -12.19,-4.48 -24.14,-9.67 -35.06,-16.5 -10.99,-6.71 -20.84,-15.18 -28.76,-25.28 -0.85,-1.13 -2.48,-1.36 -3.61,-0.5 -1.1,0.85 -1.32,2.45 -0.52,3.58"
         style="fill:#080a0b;fill-opacity:1;fill-rule:nonzero;stroke:none"
         id="path136" />
      <path
         d="m 2882.68,3319.73 c -43.96,30.63 -97.65,46.62 -150.67,45.19 -2.76,-0.08 -5.06,2.1 -5.13,4.87 -0.07,2.75 2.1,5.05 4.86,5.13 0.05,0 0.12,0 0.15,0 55.23,-0.18 109.87,-18.42 153.78,-51.01 1.15,-0.85 1.39,-2.46 0.54,-3.6 -0.83,-1.13 -2.4,-1.37 -3.53,-0.58"
         style="fill:#080a0b;fill-opacity:1;fill-rule:nonzero;stroke:none"
         id="path138" />
      <path
         d="m 2868.06,3130.77 c -68.13,35.05 -108.09,123.38 -189.58,110.7 -24.7,-2.52 -48.99,-16.87 -49.73,-43.61 5.67,-116.3 175.2,-134.67 266.21,-122.58 11.03,1.65 31.64,6.72 42.95,15.87 9.28,7.51 3.25,22.33 -8.67,22.5 -20.74,0.29 -41.93,7.22 -61.18,17.12"
         style="fill:#080a0b;fill-opacity:1;fill-rule:nonzero;stroke:none"
         id="path140" />
      <path
         d="m 3054.65,3146.58 c 61.9,45.14 87.74,138.59 170.21,138.64 24.8,1.33 51.01,-9.1 55.87,-35.4 12.36,-115.78 -152.3,-160.11 -244.09,-162.21 -11.15,-0.08 -32.3,1.74 -44.89,9.04 -10.32,5.99 -6.66,21.56 5.1,23.56 20.44,3.5 40.31,13.61 57.8,26.37"
         style="fill:#080a0b;fill-opacity:1;fill-rule:nonzero;stroke:none"
         id="path142" />
      <path
         d="m 2428.54,4368.44 c 72.81,19.07 149.84,18.91 223.52,4.74 73.89,-14.22 144.55,-42.23 210.58,-77.75 2.43,-1.31 3.34,-4.34 2.03,-6.78 -1.31,-2.43 -4.34,-3.34 -6.77,-2.03 l -0.05,0.02 c -64.96,35.87 -134.47,64.28 -207.26,79.11 -72.58,14.77 -148.64,15.76 -220.77,-2.3 -1.38,-0.34 -2.78,0.5 -3.13,1.87 -0.34,1.38 0.49,2.77 1.85,3.12"
         style="fill:#080a0b;fill-opacity:1;fill-rule:nonzero;stroke:none"
         id="path144" />
      <path
         d="m 3000.98,2478.73 c 33.47,-6.03 68.38,-2.79 99.78,9.06 2.59,0.98 5.47,-0.33 6.45,-2.92 0.97,-2.58 -0.33,-5.47 -2.91,-6.44 -0.07,-0.02 -0.16,-0.06 -0.23,-0.08 -33.68,-10.93 -70.05,-12.47 -104.13,-4.67 -1.39,0.32 -2.25,1.7 -1.93,3.09 0.3,1.35 1.62,2.19 2.97,1.96"
         style="fill:#080a0b;fill-opacity:1;fill-rule:nonzero;stroke:none"
         id="path146" />
      <path
         d="m 1801.78,1910.06 c 0,0 242.37,433.43 257.73,710.01"
         style="fill:none;stroke:#080a0b;stroke-width:20;stroke-linecap:round;stroke-linejoin:round;stroke-miterlimit:10;stroke-dasharray:none;stroke-opacity:1"
         id="path148" />
      <path
         d="m 3040.79,2083.32 c 4.4,-15.37 -33.74,-184.89 49.68,-307.82"
         style="fill:none;stroke:#080a0b;stroke-width:20;stroke-linecap:round;stroke-linejoin:round;stroke-miterlimit:10;stroke-dasharray:none;stroke-opacity:1"
         id="path150" />
      <path
         d="m 1904.84,4096.94 c 100.3,7.95 201.86,1.16 300.43,-20.18 2.7,-0.58 4.42,-3.24 3.83,-5.94 -0.58,-2.71 -3.25,-4.42 -5.94,-3.84 -0.02,0.01 -0.06,0.02 -0.08,0.02 -97.25,22.7 -197.96,31.11 -297.87,24.81 -1.42,-0.1 -2.65,0.98 -2.73,2.4 -0.09,1.4 0.96,2.62 2.36,2.73"
         style="fill:#080a0b;fill-opacity:1;fill-rule:nonzero;stroke:none"
         id="path152" />
      <path
         d="m 2362.44,2820.98 c 32.41,-7.28 54.1,10.61 81.27,29.74 27.16,19.12 51.34,42.94 81.24,57.42 49.56,24.01 109.01,19.07 160.84,0.48 51.83,-18.58 98.09,-49.61 145.29,-77.96 45.7,-27.43 92.73,-52.58 139.87,-77.48 63.2,-33.39 127.02,-66.52 195.11,-88.3 68.09,-21.78 141.26,-31.84 211.42,-18.11"
         style="fill:none;stroke:#080a0b;stroke-width:10;stroke-linecap:round;stroke-linejoin:round;stroke-miterlimit:10;stroke-dasharray:none;stroke-opacity:1"
         id="path154" />
      <path
         d="m 2396.85,2704.71 c 14.79,-15.03 40.88,-10.84 58.05,1.4 17.18,12.25 28.98,30.55 44.49,44.83 27.73,25.52 67.75,37.02 104.79,30.11 31.28,-5.83 58.82,-23.52 86.19,-39.74 93.98,-55.71 196.41,-98.22 303.7,-118.8 107.3,-20.58 219.58,-18.78 324.49,11.67"
         style="fill:none;stroke:#080a0b;stroke-width:10;stroke-linecap:round;stroke-linejoin:round;stroke-miterlimit:10;stroke-dasharray:none;stroke-opacity:1"
         id="path156" />
      <path
         d="m 2499.59,2750.66 c -5.23,-19.72 -10.5,-39.89 -9.02,-60.25 1.49,-20.35 10.99,-41.28 28.87,-51.12 6.94,-3.81 14.72,-5.77 22.46,-7.35 18.34,-3.71 37.07,-5.46 55.79,-5.19 4.56,0.07 9.19,0.27 13.49,1.81 4.51,1.64 8.38,4.66 11.9,7.93 15.83,14.73 25.79,35.13 29.9,56.36 4.11,21.23 2.64,43.28 -2.02,64.4"
         style="fill:none;stroke:#080a0b;stroke-width:10;stroke-linecap:round;stroke-linejoin:round;stroke-miterlimit:10;stroke-dasharray:none;stroke-opacity:1"
         id="path158" />
      <path
         d="m 2636.49,2648.09 c 0.91,-6.36 1.82,-12.71 2.74,-19.07 0.32,-2.28 0.71,-4.7 2.23,-6.42 1.3,-1.47 3.23,-2.2 5.09,-2.83 12.9,-4.32 26.54,-5.93 40.08,-7.24 11.49,-1.11 23.19,-2.01 34.47,0.42 11.28,2.42 22.26,8.65 27.85,18.75 3.58,6.47 4.7,13.98 5.77,21.31 2.19,15.2 4.4,30.4 6.6,45.6"
         style="fill:none;stroke:#080a0b;stroke-width:10;stroke-linecap:round;stroke-linejoin:round;stroke-miterlimit:10;stroke-dasharray:none;stroke-opacity:1"
         id="path160" />
      <path
         d="m 2856.44,2658.93 c -1.11,-14.17 -2.52,-28.31 -4.24,-42.4 -0.25,-1.97 -0.53,-4.03 -1.69,-5.63 -1.26,-1.75 -3.35,-2.66 -5.37,-3.43 -26.11,-9.97 -55.14,-8.05 -82.83,-4.23 -7.87,1.09 -16.51,2.77 -21.34,9.07 -1.32,1.71 -2.36,3.87 -2.79,5.99"
         style="fill:none;stroke:#080a0b;stroke-width:10;stroke-linecap:round;stroke-linejoin:round;stroke-miterlimit:10;stroke-dasharray:none;stroke-opacity:1"
         id="path162" />
      <path
         d="m 2948.7,2631.38 c -0.04,-8.62 -0.07,-17.22 -0.1,-25.84 -0.01,-1.49 -0.03,-3.06 -0.75,-4.37 -1.22,-2.26 -4.03,-3.04 -6.54,-3.6 -6.93,-1.56 -13.89,-3.12 -20.95,-3.99 -13.56,-1.66 -27.3,-0.73 -40.93,0.31 -9.5,0.72 -19.24,1.57 -27.84,5.69 -1.47,0.7 -2.95,1.54 -3.9,2.86 -0.96,1.32 -1.28,3.23 -0.36,4.57"
         style="fill:none;stroke:#080a0b;stroke-width:10;stroke-linecap:round;stroke-linejoin:round;stroke-miterlimit:10;stroke-dasharray:none;stroke-opacity:1"
         id="path164" />
      <path
         d="m 3031.95,2613.9 c 0,-4.83 0,-9.66 0,-14.48 0,-0.86 -0.03,-1.79 -0.61,-2.41 -0.49,-0.53 -1.24,-0.69 -1.95,-0.82 -26.81,-4.97 -54.6,-4.7 -81.32,0.78"
         style="fill:none;stroke:#080a0b;stroke-width:10;stroke-linecap:round;stroke-linejoin:round;stroke-miterlimit:10;stroke-dasharray:none;stroke-opacity:1"
         id="path166" />
      <path
         d="m 2448.92,3583.7 c 0.34,-13.3 2.6,-26.01 6.67,-38.02 17.19,-50.5 64.9,-86.8 121.2,-86.8 58.8,0 108.3,39.5 123.4,93.5 2.81,9.98 4.32,20.49 4.59,31.32 z"
         style="fill:none;stroke:#080a0b;stroke-width:20;stroke-linecap:round;stroke-linejoin:round;stroke-miterlimit:10;stroke-dasharray:none;stroke-opacity:1"
         id="path168" />
      <path
         d="m 2704.78,3593.21 c -0.27,-10.83 -1.78,-21.34 -4.59,-31.32 l 61.79,30.9 -0.52,0.42 h -56.68"
         style="fill:#080a0b;fill-opacity:1;fill-rule:nonzero;stroke:none"
         id="path170" />
      <path
         d="m 2517.12,3583.7 c 5.79,-36.71 37.47,-64.81 75.8,-64.81 38.33,0 70.01,28.1 75.79,64.81 h -151.59"
         style="fill:#080a0b;fill-opacity:1;fill-rule:nonzero;stroke:none"
         id="path174" />
      <path
         d="m 2590.98,3583.7 c 8.38,-10.66 24.87,-18 44.1,-18 19.24,0 35.73,7.34 44.11,18 h -88.21"
         style="fill:#ffffff;fill-opacity:1;fill-rule:nonzero;stroke:none"
         id="path176" />
      <path
         d="m 2486.09,3447.46 c 14.45,4.01 28.96,6.25 43.64,7.92 14.65,1.61 29.39,2.35 44.14,2.47 14.74,-0.12 29.51,-0.55 44.19,-2.03 14.7,-1.26 29.3,-3.45 43.86,-5.92 2.73,-0.47 4.56,-3.05 4.1,-5.77 -0.46,-2.72 -3.04,-4.56 -5.77,-4.1 -0.04,0.01 -0.07,0.02 -0.11,0.02 l -0.14,0.03 c -14.19,2.82 -28.47,5.37 -42.86,7 -14.38,1.86 -28.86,2.67 -43.35,3.2 -14.49,0.28 -29,-0.05 -43.45,-1.23 -14.4,-1.22 -28.95,-3.1 -42.79,-6.53 l -0.15,-0.04 c -1.38,-0.34 -2.78,0.5 -3.12,1.88 -0.33,1.35 0.48,2.72 1.81,3.1"
         style="fill:#080a0b;fill-opacity:1;fill-rule:nonzero;stroke:none"
         id="path178" />
      <path
         d="m 2958.19,3583.7 c 0.34,-13.3 2.6,-26.01 6.66,-38.02 17.2,-50.5 64.91,-86.8 121.2,-86.8 58.8,0 108.31,39.5 123.4,93.5 2.82,9.98 4.33,20.49 4.59,31.32 z"
         style="fill:none;stroke:#080a0b;stroke-width:20;stroke-linecap:round;stroke-linejoin:round;stroke-miterlimit:10;stroke-dasharray:none;stroke-opacity:1"
         id="path180" />
      <path
         d="m 3214.04,3593.21 c -0.26,-10.83 -1.77,-21.34 -4.59,-31.32 l 61.8,30.9 -0.53,0.42 h -56.68"
         style="fill:#080a0b;fill-opacity:1;fill-rule:nonzero;stroke:none"
         id="path182" />
      <path
         d="m 2901.82,3593.21 -21.37,-15.82 c 0,0 55.3,-14.4 84.4,-22.2 -4.06,12.01 -6.32,24.72 -6.66,38.02 h -56.37"
         style="fill:#080a0b;fill-opacity:1;fill-rule:nonzero;stroke:none"
         id="path184" />
      <path
         d="m 3026.39,3583.7 c 5.79,-36.71 37.47,-64.81 75.8,-64.81 38.33,0 70.01,28.1 75.79,64.81 h -151.59"
         style="fill:#080a0b;fill-opacity:1;fill-rule:nonzero;stroke:none"
         id="path186" />
      <path
         d="m 3100.24,3583.7 c 8.38,-10.66 24.88,-18 44.12,-18 19.22,0 35.72,7.34 44.1,18 h -88.22"
         style="fill:#ffffff;fill-opacity:1;fill-rule:nonzero;stroke:none"
         id="path188" />
      <path
         d="m 2995.36,3447.46 c 14.45,4.01 28.96,6.25 43.63,7.92 14.66,1.61 29.4,2.35 44.14,2.47 14.75,-0.12 29.52,-0.55 44.19,-2.03 14.71,-1.26 29.31,-3.45 43.87,-5.92 2.73,-0.47 4.56,-3.05 4.1,-5.77 -0.47,-2.72 -3.04,-4.56 -5.77,-4.1 -0.04,0.01 -0.08,0.02 -0.11,0.02 l -0.13,0.03 c -14.2,2.82 -28.48,5.37 -42.87,7 -14.38,1.86 -28.86,2.67 -43.34,3.2 -14.5,0.28 -29.02,-0.05 -43.46,-1.23 -14.4,-1.22 -28.96,-3.1 -42.79,-6.53 l -0.15,-0.04 c -1.38,-0.34 -2.77,0.5 -3.12,1.88 -0.34,1.35 0.47,2.72 1.81,3.1"
         style="fill:#080a0b;fill-opacity:1;fill-rule:nonzero;stroke:none"
         id="path190" />
      <path
         d="m 2413.79,3644.96 c 16.84,21.38 37.08,39.61 59.92,54.31 22.8,14.57 48.84,24.94 76.22,27.64 27.36,2.5 55.36,-2.93 80,-14.84 24.77,-11.76 46.74,-28.53 66.05,-47.56 1.96,-1.94 1.99,-5.1 0.06,-7.07 -1.95,-1.97 -5.11,-2 -7.08,-0.06 -0.01,0.01 -0.04,0.05 -0.05,0.06 -18.45,18.75 -39.36,35.15 -62.77,46.7 -23.3,11.7 -49.57,17.18 -75.54,15.23 -26,-2.17 -51.15,-11.67 -73.51,-25.49 -22.33,-13.86 -42.64,-31.64 -59.17,-52.01 l -0.11,-0.13 c -0.9,-1.1 -2.52,-1.27 -3.62,-0.37 -1.09,0.89 -1.27,2.49 -0.4,3.59"
         style="fill:#080a0b;fill-opacity:1;fill-rule:nonzero;stroke:none"
         id="path192" />
      <path
         d="m 2943.49,3672.68 c 15.2,20.59 34.4,37.75 56.55,50.51 22.13,12.57 47.74,19.97 73.54,19.1 12.87,-0.36 25.63,-2.5 37.98,-5.99 12.2,-3.9 24.22,-8.55 35.37,-14.78 22.6,-11.98 42.76,-27.86 61.18,-45.24 2,-1.89 2.1,-5.05 0.2,-7.06 -1.89,-2.01 -5.07,-2.1 -7.07,-0.21 -0.02,0.01 -0.06,0.06 -0.07,0.07 -17.66,17.22 -36.96,32.9 -58.45,44.73 -10.61,6.17 -21.98,10.74 -33.52,14.66 -11.67,3.49 -23.7,5.7 -35.85,6.25 -24.35,1.22 -48.73,-5.35 -70.22,-17.09 -21.41,-11.82 -40.59,-28.47 -55.41,-47.87 l -0.11,-0.17 c -0.87,-1.12 -2.48,-1.34 -3.62,-0.48 -1.11,0.85 -1.33,2.44 -0.5,3.57"
         style="fill:#080a0b;fill-opacity:1;fill-rule:nonzero;stroke:none"
         id="path194" />
      <path
         d="m 2383.66,2718.85 c 0,0 -131.71,-308.78 68.78,-506.34"
         style="fill:none;stroke:#080a0b;stroke-width:10;stroke-linecap:round;stroke-linejoin:round;stroke-miterlimit:10;stroke-dasharray:none;stroke-opacity:1"
         id="path196" />
      <path
         d="m 2501.48,1948.42 c 27.83,-87.2 69.89,-169.7 123.93,-243.24 1.63,-2.23 1.15,-5.37 -1.07,-7 -2.23,-1.64 -5.36,-1.15 -7,1.07 -0.01,0.02 -0.04,0.06 -0.05,0.08 -53.35,75.38 -94.28,159.36 -120.73,247.56 -0.41,1.37 0.36,2.81 1.73,3.21 1.34,0.41 2.76,-0.34 3.19,-1.68"
         style="fill:#080a0b;fill-opacity:1;fill-rule:nonzero;stroke:none"
         id="path198" />
      <path
         d="m 3315.23,3295.6 c -15.29,1.4 -30,6.5 -44.1,14.9 5.61,3.3 11.11,7.1 16.51,11.5 9.2,-6.5 19,-15.2 27.59,-26.4 z"
         style="fill:none;stroke:#080a0b;stroke-width:20;stroke-linecap:round;stroke-linejoin:round;stroke-miterlimit:10;stroke-dasharray:none;stroke-opacity:1"
         id="path200" />
      <path
         d="m 2942.69,2990.49 c 0,-33.14 -26.87,-60 -60,-60 -33.15,0 -60,26.86 -60,60 0,33.14 26.85,60 60,60 33.13,0 60,-26.86 60,-60"
         style="fill:#f68728;fill-opacity:1;fill-rule:nonzero;stroke:none"
         id="path202" />
      <path
         d="m 2942.69,2990.49 c 0,-33.14 -26.87,-60 -60,-60 -33.15,0 -60,26.86 -60,60 0,33.14 26.85,60 60,60 33.13,0 60,-26.86 60,-60 z"
         style="fill:none;stroke:#080a0b;stroke-width:10;stroke-linecap:round;stroke-linejoin:round;stroke-miterlimit:10;stroke-dasharray:none;stroke-opacity:1"
         id="path204" />
      <path
         d="m 2845.06,3118.13 c -9.61,-23.33 -12.82,-49.27 -9.2,-74.24 1.52,-10.5 4.38,-21.13 10.84,-29.53 6.33,-8.26 16,-13.87 26.3,-15.28 2.01,-0.28 4.05,-0.39 6.08,-0.35 11.14,0.23 18.48,11.65 14.56,22.08 -0.02,0.05 -0.04,0.11 -0.06,0.17 -10.73,28.66 -14.41,61.54 -1.88,89.47 -14.24,7.66 -30.86,11.2 -46.64,7.68"
         style="fill:#f68728;fill-opacity:1;fill-rule:nonzero;stroke:none"
         id="path206" />
      <path
         d="m 2845.06,3118.13 c -9.61,-23.33 -12.82,-49.27 -9.2,-74.24 1.52,-10.5 4.38,-21.13 10.84,-29.53 6.33,-8.26 16,-13.87 26.3,-15.28 2.01,-0.28 4.05,-0.39 6.08,-0.35 11.14,0.23 18.48,11.65 14.56,22.08 -0.02,0.05 -0.04,0.11 -0.06,0.17 -10.73,28.66 -14.41,61.54 -1.88,89.47 -14.24,7.66 -30.86,11.2 -46.64,7.68 z"
         style="fill:none;stroke:#080a0b;stroke-width:10;stroke-linecap:round;stroke-linejoin:round;stroke-miterlimit:10;stroke-dasharray:none;stroke-opacity:1"
         id="path208" />
      <path
         d="m 3031.22,3010.49 c 0,-33.14 26.87,-60 60,-60 33.14,0 60,26.86 60,60 0,33.14 -26.86,60 -60,60 -33.13,0 -60,-26.86 -60,-60"
         style="fill:#f68728;fill-opacity:1;fill-rule:nonzero;stroke:none"
         id="path210" />
      <path
         d="m 3031.22,3010.49 c 0,-33.14 26.87,-60 60,-60 33.14,0 60,26.86 60,60 0,33.14 -26.86,60 -60,60 -33.13,0 -60,-26.86 -60,-60 z"
         style="fill:none;stroke:#080a0b;stroke-width:10;stroke-linecap:round;stroke-linejoin:round;stroke-miterlimit:10;stroke-dasharray:none;stroke-opacity:1"
         id="path212" />
      <path
         d="m 3128.84,3138.13 c 9.62,-23.33 12.83,-49.27 9.2,-74.24 -1.53,-10.5 -4.38,-21.12 -10.83,-29.53 -6.33,-8.26 -16,-13.87 -26.3,-15.28 -2.02,-0.28 -4.05,-0.39 -6.09,-0.35 -11.14,0.23 -18.47,11.65 -14.57,22.08 0.02,0.05 0.04,0.11 0.07,0.17 10.72,28.66 14.41,61.54 1.89,89.47 14.23,7.66 30.86,11.21 46.63,7.68"
         style="fill:#f68728;fill-opacity:1;fill-rule:nonzero;stroke:none"
         id="path214" />
      <path
         d="m 3128.84,3138.13 c 9.62,-23.33 12.83,-49.27 9.2,-74.24 -1.53,-10.5 -4.38,-21.12 -10.83,-29.53 -6.33,-8.26 -16,-13.87 -26.3,-15.28 -2.02,-0.28 -4.05,-0.39 -6.09,-0.35 -11.14,0.23 -18.47,11.65 -14.57,22.08 0.02,0.05 0.04,0.11 0.07,0.17 10.72,28.66 14.41,61.54 1.89,89.47 14.23,7.66 30.86,11.21 46.63,7.68 z"
         style="fill:none;stroke:#080a0b;stroke-width:10;stroke-linecap:round;stroke-linejoin:round;stroke-miterlimit:10;stroke-dasharray:none;stroke-opacity:1"
         id="path216" />
      <path
         d="m 3355.73,3677.1 c 0,-126.3 -41.89,-232.9 -99.2,-266.6 -6.2,-3.7 -12.59,-6.5 -19.2,-8.3 -11.7,71.7 -17,190.6 25.11,286.9 47.79,109.2 8.1,215.8 -12,257.8 2,-1 4.1,-2.1 6.09,-3.3 57.31,-33.7 99.2,-140.3 99.2,-266.5"
         style="fill:#080a0b;fill-opacity:1;fill-rule:nonzero;stroke:none"
         id="path218" />
      <path
         d="m 3355.73,3677.1 c 0,-126.3 -41.89,-232.9 -99.2,-266.6 -6.2,-3.7 -12.59,-6.5 -19.2,-8.3 -11.7,71.7 -17,190.6 25.11,286.9 47.79,109.2 8.1,215.8 -12,257.8 2,-1 4.1,-2.1 6.09,-3.3 57.31,-33.7 99.2,-140.3 99.2,-266.5 z"
         style="fill:none;stroke:#080a0b;stroke-width:20;stroke-linecap:round;stroke-linejoin:round;stroke-miterlimit:10;stroke-dasharray:none;stroke-opacity:1"
         id="path220" />
      <path
         d="m 3407.54,3677.1 c 0,-10.1 -0.21,-20.1 -0.61,-29.9 -0.4,-9.9 -0.89,-19.7 -1.7,-29.3 -0.19,-3.3 -0.49,-6.6 -0.8,-9.8 -0.29,-3.4 -0.59,-6.8 -0.99,-10.1 -0.4,-4.4 -0.9,-8.8 -1.51,-13.1 -0.69,-5.8 -1.49,-11.5 -2.29,-17.1 -0.61,-4.4 -1.3,-8.8 -2,-13.1 -0.2,-0.9 -0.4,-1.9 -0.5,-2.8 -0.7,-3.8 -1.41,-7.6 -2.1,-11.4 -1.01,-5.4 -2.1,-10.7 -3.3,-16 -0.61,-3.1 -1.3,-6.1 -2,-9.1 -5.5,-23.7 -12.2,-46 -19.91,-66.7 -1.39,-3.8 -2.79,-7.5 -4.29,-11.1 -0.71,-1.9 -1.51,-3.8 -2.31,-5.7 -1.19,-3 -2.5,-5.9 -3.8,-8.8 -2.9,-6.6 -5.89,-13 -9.1,-19.2 -1.19,-2.5 -2.5,-4.9 -3.8,-7.2 -1.7,-3.2 -3.4,-6.3 -5.19,-9.3 -1.6,-3 -3.4,-5.9 -5.1,-8.7 -0.2,-0.3 -0.4,-0.6 -0.51,-0.8 -1.79,-2.7 -3.49,-5.4 -5.29,-8 -1.81,-2.8 -3.7,-5.5 -5.7,-8.2 -1.91,-2.7 -3.8,-5.2 -5.8,-7.7 -3.9,-5 -8,-9.7 -12.1,-14.1 -2.3,-2.6 -4.8,-5.1 -7.2,-7.4 -3.91,-3.7 -7.9,-7.2 -11.91,-10.4 0,0 0,-0.1 -0.09,-0.1 -18.1,13.1 -34.01,18.1 -34.01,18.1 -4.09,6.2 -10.9,29.1 -16.3,62.1 6.61,1.8 13,4.6 19.2,8.3 57.31,33.7 99.2,140.3 99.2,266.6 0,126.2 -41.89,232.8 -99.2,266.5 -1.99,1.2 -4.09,2.3 -6.09,3.3 -5.8,12.1 -9.9,18.8 -9.9,18.8 -7.6,21.3 -37,50.9 -72,80.4 15.7,8.4 32.09,12.9 49.1,12.9 18.6,0 36.5,-5.4 53.49,-15.4 78.81,-46.4 136.41,-192.9 136.41,-366.5"
         style="fill:#fce19d;fill-opacity:1;fill-rule:nonzero;stroke:none"
         id="path222" />
      <path
         d="m 3407.54,3677.1 c 0,-10.1 -0.21,-20.1 -0.61,-29.9 -0.4,-9.9 -0.89,-19.7 -1.7,-29.3 -0.19,-3.3 -0.49,-6.6 -0.8,-9.8 -0.29,-3.4 -0.59,-6.8 -0.99,-10.1 -0.4,-4.4 -0.9,-8.8 -1.51,-13.1 -0.69,-5.8 -1.49,-11.5 -2.29,-17.1 -0.61,-4.4 -1.3,-8.8 -2,-13.1 -0.2,-0.9 -0.4,-1.9 -0.5,-2.8 -0.7,-3.8 -1.41,-7.6 -2.1,-11.4 -1.01,-5.4 -2.1,-10.7 -3.3,-16 -0.61,-3.1 -1.3,-6.1 -2,-9.1 -5.5,-23.7 -12.2,-46 -19.91,-66.7 -1.39,-3.8 -2.79,-7.5 -4.29,-11.1 -0.71,-1.9 -1.51,-3.8 -2.31,-5.7 -1.19,-3 -2.5,-5.9 -3.8,-8.8 -2.9,-6.6 -5.89,-13 -9.1,-19.2 -1.19,-2.5 -2.5,-4.9 -3.8,-7.2 -1.7,-3.2 -3.4,-6.3 -5.19,-9.3 -1.6,-3 -3.4,-5.9 -5.1,-8.7 -0.2,-0.3 -0.4,-0.6 -0.51,-0.8 -1.79,-2.7 -3.49,-5.4 -5.29,-8 -1.81,-2.8 -3.7,-5.5 -5.7,-8.2 -1.91,-2.7 -3.8,-5.2 -5.8,-7.7 -3.9,-5 -8,-9.7 -12.1,-14.1 -2.3,-2.6 -4.8,-5.1 -7.2,-7.4 -3.91,-3.7 -7.9,-7.2 -11.91,-10.4 0,0 0,-0.1 -0.09,-0.1 -18.1,13.1 -34.01,18.1 -34.01,18.1 -4.09,6.2 -10.9,29.1 -16.3,62.1 6.61,1.8 13,4.6 19.2,8.3 57.31,33.7 99.2,140.3 99.2,266.6 0,126.2 -41.89,232.8 -99.2,266.5 -1.99,1.2 -4.09,2.3 -6.09,3.3 -5.8,12.1 -9.9,18.8 -9.9,18.8 -7.6,21.3 -37,50.9 -72,80.4 15.7,8.4 32.09,12.9 49.1,12.9 18.6,0 36.5,-5.4 53.49,-15.4 78.81,-46.4 136.41,-192.9 136.41,-366.5 z"
         style="fill:none;stroke:#080a0b;stroke-width:20;stroke-linecap:round;stroke-linejoin:round;stroke-miterlimit:10;stroke-dasharray:none;stroke-opacity:1"
         id="path224" />
      <path
         d="m 3514.34,3677.1 c 0,-211 -85,-382 -189.8,-382 -3.1,0 -6.2,0.2 -9.31,0.5 -8.59,11.2 -18.39,19.9 -27.59,26.4 0.09,0 0.09,0.1 0.09,0.1 4.01,3.1 8,6.6 11.91,10.4 2.4,2.3 4.9,4.8 7.2,7.4 4.2,4.4 8.2,9.1 12.1,14.1 2,2.5 3.89,5 5.8,7.7 2,2.7 3.89,5.4 5.7,8.2 1.8,2.6 3.5,5.3 5.29,8 0.11,0.2 0.31,0.5 0.51,0.8 1.7,2.8 3.5,5.7 5.1,8.7 1.79,3 3.49,6.1 5.19,9.3 1.3,2.3 2.61,4.7 3.8,7.2 3.21,6.2 6.2,12.6 9.1,19.2 1.3,2.9 2.61,5.8 3.8,8.8 0.8,1.9 1.6,3.8 2.31,5.7 1.5,3.6 2.9,7.3 4.29,11.1 7.71,20.7 14.41,43 19.91,66.7 0.7,3 1.39,6 2,9.1 1.2,5.3 2.29,10.6 3.3,16 0.69,3.8 1.4,7.6 2.1,11.4 0.1,0.9 0.3,1.9 0.5,2.8 0.7,4.3 1.39,8.7 2,13.1 0.8,5.6 1.6,11.3 2.29,17.1 0.61,4.3 1.11,8.7 1.51,13.1 0.4,3.3 0.7,6.7 0.99,10.1 0.31,3.2 0.61,6.5 0.8,9.8 0.81,9.6 1.3,19.4 1.7,29.3 0.4,9.8 0.61,19.8 0.61,29.9 0,173.6 -57.6,320.1 -136.41,366.5 16.91,10.1 34.81,15.4 53.41,15.4 104.8,0 189.8,-171 189.8,-381.9"
         style="fill:#f03c31;fill-opacity:1;fill-rule:nonzero;stroke:none"
         id="path226" />
      <path
         d="m 3514.34,3677.1 c 0,-211 -85,-382 -189.8,-382 -3.1,0 -6.2,0.2 -9.31,0.5 -8.59,11.2 -18.39,19.9 -27.59,26.4 0.09,0 0.09,0.1 0.09,0.1 4.01,3.1 8,6.6 11.91,10.4 2.4,2.3 4.9,4.8 7.2,7.4 4.2,4.4 8.2,9.1 12.1,14.1 2,2.5 3.89,5 5.8,7.7 2,2.7 3.89,5.4 5.7,8.2 1.8,2.6 3.5,5.3 5.29,8 0.11,0.2 0.31,0.5 0.51,0.8 1.7,2.8 3.5,5.7 5.1,8.7 1.79,3 3.49,6.1 5.19,9.3 1.3,2.3 2.61,4.7 3.8,7.2 3.21,6.2 6.2,12.6 9.1,19.2 1.3,2.9 2.61,5.8 3.8,8.8 0.8,1.9 1.6,3.8 2.31,5.7 1.5,3.6 2.9,7.3 4.29,11.1 7.71,20.7 14.41,43 19.91,66.7 0.7,3 1.39,6 2,9.1 1.2,5.3 2.29,10.6 3.3,16 0.69,3.8 1.4,7.6 2.1,11.4 0.1,0.9 0.3,1.9 0.5,2.8 0.7,4.3 1.39,8.7 2,13.1 0.8,5.6 1.6,11.3 2.29,17.1 0.61,4.3 1.11,8.7 1.51,13.1 0.4,3.3 0.7,6.7 0.99,10.1 0.31,3.2 0.61,6.5 0.8,9.8 0.81,9.6 1.3,19.4 1.7,29.3 0.4,9.8 0.61,19.8 0.61,29.9 0,173.6 -57.6,320.1 -136.41,366.5 16.91,10.1 34.81,15.4 53.41,15.4 104.8,0 189.8,-171 189.8,-381.9 z"
         style="fill:none;stroke:#080a0b;stroke-width:20;stroke-linecap:round;stroke-linejoin:round;stroke-miterlimit:10;stroke-dasharray:none;stroke-opacity:1"
         id="path228" />
      <path
         d="m 2010.54,3541.7 c 0,-198.4 -88,-365 -206.9,-411.9 -21.9,-8.6 -44.7,-13.2 -68.3,-13.2 -151.9,0 -275.1,190.3 -275.1,425.1 0,234.8 123.2,425.1 275.1,425.1 19.8,0 39.1,-3.2 57.79,-9.4 124.21,-41 217.41,-211.5 217.41,-415.7"
         style="fill:#f03c31;fill-opacity:1;fill-rule:nonzero;stroke:none"
         id="path230" />
      <path
         d="m 2102.64,3547.6 c 0,-244.5 -100.5,-442.7 -224.6,-442.7 -26.1,0 -51.1,8.8 -74.4,24.9 118.9,46.9 206.9,213.5 206.9,411.9 0,204.2 -93.2,374.7 -217.41,415.7 26.21,21.1 54.8,32.8 84.91,32.8 124.1,0 224.6,-198.2 224.6,-442.6"
         style="fill:#fce19d;fill-opacity:1;fill-rule:nonzero;stroke:none"
         id="path232" />
      <path
         d="m 2010.54,3541.7 c 0,-198.4 -88,-365 -206.9,-411.9 -21.9,-8.6 -44.7,-13.2 -68.3,-13.2 -151.9,0 -275.1,190.3 -275.1,425.1 0,234.8 123.2,425.1 275.1,425.1 19.8,0 39.1,-3.2 57.79,-9.4 124.21,-41 217.41,-211.5 217.41,-415.7 z"
         style="fill:none;stroke:#080a0b;stroke-width:20;stroke-linecap:round;stroke-linejoin:round;stroke-miterlimit:10;stroke-dasharray:none;stroke-opacity:1"
         id="path234" />
      <path
         d="m 2102.64,3547.6 c 0,-244.5 -100.5,-442.7 -224.6,-442.7 -26.1,0 -51.1,8.8 -74.4,24.9 118.9,46.9 206.9,213.5 206.9,411.9 0,204.2 -93.2,374.7 -217.41,415.7 26.21,21.1 54.8,32.8 84.91,32.8 124.1,0 224.6,-198.2 224.6,-442.6 z"
         style="fill:none;stroke:#080a0b;stroke-width:20;stroke-linecap:round;stroke-linejoin:round;stroke-miterlimit:10;stroke-dasharray:none;stroke-opacity:1"
         id="path236" />
      <path
         d="m 1694.39,3553.41 c 0,-170.93 -65.85,-309.51 -147.07,-309.51 -81.23,0 -147.08,138.58 -147.08,309.51 0,170.95 65.85,309.51 147.08,309.51 81.22,0 147.07,-138.56 147.07,-309.51"
         style="fill:#f03c31;fill-opacity:1;fill-rule:nonzero;stroke:none"
         id="path238" />
      <path
         d="m 1694.39,3553.41 c 0,-170.93 -65.85,-309.51 -147.07,-309.51 -81.23,0 -147.08,138.58 -147.08,309.51 0,170.95 65.85,309.51 147.08,309.51 81.22,0 147.07,-138.56 147.07,-309.51 z"
         style="fill:none;stroke:#080a0b;stroke-width:20;stroke-linecap:round;stroke-linejoin:round;stroke-miterlimit:10;stroke-dasharray:none;stroke-opacity:1"
         id="path240" />
      <path
         d="m 1751.46,3915.61 -3.13,-1.69 c -32.95,-17.8 -72.79,-17.16 -105.16,1.69 v 0 223.9 h 108.29 v -223.9"
         style="fill:#f03c31;fill-opacity:1;fill-rule:nonzero;stroke:none"
         id="path242" />
      <path
         d="m 1751.46,3915.61 -3.13,-1.69 c -32.95,-17.8 -72.79,-17.16 -105.16,1.69 v 0 223.9 h 108.29 z"
         style="fill:none;stroke:#080a0b;stroke-width:20;stroke-linecap:round;stroke-linejoin:round;stroke-miterlimit:10;stroke-dasharray:none;stroke-opacity:1"
         id="path244" />
      <path
         d="m 1674.2,3390.43 c 0,0 22.29,-214.01 -107.01,-189.48 l -23.41,41.24 c 0,0 115.93,18.95 130.42,148.24"
         style="fill:#080a0b;fill-opacity:1;fill-rule:nonzero;stroke:none"
         id="path246" />
      <path
         d="m 1982.96,3342.5 c 0,0 -4.46,-270.85 -177.23,-224.04 l 25.63,23.41 c 0,0 135.99,79.14 151.6,200.63"
         style="fill:#080a0b;fill-opacity:1;fill-rule:nonzero;stroke:none"
         id="path248" />
      <path
         d="m 3187.14,4033.66 3.13,-1.7 c 32.95,-17.79 72.8,-17.15 105.16,1.7 v 0 223.9 h -108.29 v -223.9"
         style="fill:#f03c31;fill-opacity:1;fill-rule:nonzero;stroke:none"
         id="path250" />
      <path
         d="m 3187.14,4033.66 3.13,-1.7 c 32.95,-17.79 72.8,-17.15 105.16,1.7 v 0 223.9 h -108.29 z"
         style="fill:none;stroke:#080a0b;stroke-width:20;stroke-linecap:round;stroke-linejoin:round;stroke-miterlimit:10;stroke-dasharray:none;stroke-opacity:1"
         id="path252" />
      <path
         d="m 3171.21,4263.17 h 148.38 c -59.6,217.55 -293.38,583.06 -826.97,554.35 0,0 -749.36,-3 -878.72,-712.4 l 93.67,9.43 60.22,-5.53 c 0,0 274.32,657.92 872.02,608.86 0,0 446.93,-22.9 531.4,-454.71"
         style="fill:#f03c31;fill-opacity:1;fill-rule:nonzero;stroke:none"
         id="path254" />
      <path
         d="m 3168.18,4263.17 h 153.93 c -36.32,169.1 -227.06,586.77 -829.49,554.35 0,0 -749.36,-3 -878.72,-712.4 l 93.67,9.43 60.22,-5.53 c 0,0 274.32,657.92 872.02,608.86 0,0 443.89,-22.9 528.37,-454.71 z"
         style="fill:none;stroke:#080a0b;stroke-width:20;stroke-linecap:round;stroke-linejoin:round;stroke-miterlimit:10;stroke-dasharray:none;stroke-opacity:1"
         id="path256" />
      <path
         d="m 1740.83,4178.79 c 14.4,38.6 32.55,75.39 52.4,111.26 19.91,35.84 42.04,70.43 66.07,103.65 48.07,66.39 104.17,127.18 167.67,179.2 63.46,51.98 134.33,95.18 210.25,126.55 37.89,15.81 77.04,28.55 116.81,38.73 39.85,9.91 80.36,17.07 121.17,21.55 20.46,2.13 40.86,3.71 61.14,5.38 20.74,1.82 41.29,1.39 61.83,0.49 41.06,-2.08 81.91,-7.3 122.18,-15.43 80.47,-16.19 159.09,-44 230.05,-85.95 70.97,-41.7 133.29,-98.83 179.07,-167.58 46.02,-68.66 74.79,-147.8 89.31,-228.73 0.48,-2.71 -1.33,-5.31 -4.04,-5.8 -2.72,-0.48 -5.32,1.32 -5.8,4.04 l -0.01,0.01 c -14.13,79.86 -42.26,157.72 -87.29,225.27 -44.79,67.63 -105.87,123.93 -175.74,165.22 -69.85,41.53 -147.52,69.25 -227.18,85.48 -39.85,8.14 -80.33,13.42 -120.94,15.57 -20.26,0.94 -40.7,1.4 -60.71,-0.32 -20.48,-1.63 -40.84,-3.16 -61.05,-5.21 -40.49,-4.35 -80.68,-11.35 -120.21,-21.07 -39.46,-9.99 -78.31,-22.53 -115.92,-38.11 -75.34,-30.92 -145.74,-73.58 -208.89,-125.03 -63.17,-51.48 -119.07,-111.75 -167.04,-177.64 -23.97,-32.98 -46.07,-67.33 -65.97,-102.93 -19.81,-35.57 -38.02,-72.31 -52.3,-110.3 l -0.05,-0.11 c -0.49,-1.34 -1.98,-2 -3.31,-1.51 -1.33,0.51 -2,1.98 -1.5,3.32"
         style="fill:#080a0b;fill-opacity:1;fill-rule:nonzero;stroke:none"
         id="path258" />
    </g>
  </g>
</svg>
